<?xml version="1.0" encoding="UTF-8" standalone="no"?>
<!DOCTYPE svg PUBLIC "-//W3C//DTD SVG 20010904//EN"
              "http://www.w3.org/TR/2001/REC-SVG-20010904/DTD/svg10.dtd">

<svg xmlns="http://www.w3.org/2000/svg"
     width="9.03113mm" height="9.03113mm"
     viewBox="0 0 1600 1600">
  <path id="Selection"
        fill="white"
        d="M 256.00,358.00
           C 270.79,354.66 282.37,351.02 298.00,351.00
             298.00,351.00 352.00,351.00 352.00,351.00
             352.00,351.00 453.00,351.00 453.00,351.00
             453.00,351.00 800.00,351.00 800.00,351.00
             800.00,351.00 1147.00,351.00 1147.00,351.00
             1147.00,351.00 1248.00,351.00 1248.00,351.00
             1248.00,351.00 1302.00,351.00 1302.00,351.00
             1317.63,351.02 1329.21,354.66 1344.00,358.00
             1341.66,361.90 1337.77,363.54 1334.00,366.00
             1334.00,366.00 1313.00,379.34 1313.00,379.34
             1313.00,379.34 1231.00,431.66 1231.00,431.66
             1231.00,431.66 1211.00,444.34 1211.00,444.34
             1204.48,448.58 1201.04,451.89 1193.00,452.00
             1193.00,452.00 1118.00,452.00 1118.00,452.00
             1118.00,452.00 967.00,452.00 967.00,452.00
             967.00,452.00 515.00,452.00 515.00,452.00
             515.00,452.00 409.00,452.00 409.00,452.00
             406.37,452.00 403.52,452.13 401.00,451.30
             397.36,450.12 381.34,439.48 377.00,436.69
             377.00,436.69 316.00,397.81 316.00,397.81
             316.00,397.81 274.00,371.05 274.00,371.05
             269.13,367.96 258.76,362.61 256.00,358.00 Z
           M 204.00,386.99
           C 209.36,386.05 213.60,389.86 218.00,392.69
             218.00,392.69 245.00,409.95 245.00,409.95
             245.00,409.95 354.00,479.31 354.00,479.31
             354.00,479.31 666.00,677.69 666.00,677.69
             666.00,677.69 761.00,738.19 761.00,738.19
             761.00,738.19 787.00,754.69 787.00,754.69
             789.62,756.37 796.25,761.07 799.00,761.51
             802.63,762.10 808.02,757.95 811.00,756.00
             811.00,756.00 836.00,740.05 836.00,740.05
             836.00,740.05 936.00,676.42 936.00,676.42
             936.00,676.42 1067.00,593.05 1067.00,593.05
             1067.00,593.05 1339.00,420.05 1339.00,420.05
             1339.00,420.05 1378.00,395.31 1378.00,395.31
             1381.23,393.23 1390.59,386.49 1394.00,386.57
             1396.85,386.64 1399.97,389.37 1402.00,391.17
             1407.40,395.96 1412.19,401.41 1416.74,407.00
             1434.89,429.31 1449.95,462.84 1450.00,492.00
             1450.00,492.00 1450.00,1161.00 1450.00,1161.00
             1449.98,1172.86 1446.72,1187.73 1443.00,1199.00
             1423.49,1258.05 1366.89,1301.90 1304.00,1302.00
             1304.00,1302.00 654.00,1302.00 654.00,1302.00
             654.00,1302.00 414.00,1302.00 414.00,1302.00
             414.00,1302.00 294.00,1302.00 294.00,1302.00
             281.18,1301.85 265.17,1298.72 253.00,1294.67
             207.01,1279.34 172.25,1245.15 157.00,1199.00
             153.28,1187.73 150.02,1172.86 150.00,1161.00
             150.00,1161.00 150.00,588.00 150.00,588.00
             150.00,588.00 150.00,527.00 150.00,527.00
             150.00,527.00 150.00,492.00 150.00,492.00
             150.04,469.09 159.95,442.35 171.81,423.00
             178.37,412.30 193.22,392.81 204.00,386.99 Z
           M 301.00,623.00
           C 301.00,623.00 300.00,640.00 300.00,640.00
             300.00,640.00 300.00,674.00 300.00,674.00
             300.00,674.00 300.00,793.00 300.00,793.00
             300.00,793.00 300.00,1201.00 300.00,1201.00
             300.00,1201.00 1300.00,1201.00 1300.00,1201.00
             1300.00,1201.00 1300.00,623.00 1300.00,623.00
             1300.00,623.00 1275.00,638.66 1275.00,638.66
             1275.00,638.66 1255.00,651.31 1255.00,651.31
             1255.00,651.31 1177.00,700.95 1177.00,700.95
             1177.00,700.95 937.00,853.69 937.00,853.69
             937.00,853.69 838.00,916.69 838.00,916.69
             838.00,916.69 812.00,933.31 812.00,933.31
             812.00,933.31 800.00,939.60 800.00,939.60
             800.00,939.60 788.00,933.31 788.00,933.31
             788.00,933.31 762.00,916.69 762.00,916.69
             762.00,916.69 664.00,854.34 664.00,854.34
             664.00,854.34 580.00,800.95 580.00,800.95
             580.00,800.95 417.00,697.05 417.00,697.05
             417.00,697.05 340.00,648.05 340.00,648.05
             340.00,648.05 301.00,623.00 301.00,623.00 Z" />
</svg>
