<?xml version="1.0" encoding="UTF-8" standalone="no"?>
<!DOCTYPE svg PUBLIC "-//W3C//DTD SVG 20010904//EN"
              "http://www.w3.org/TR/2001/REC-SVG-20010904/DTD/svg10.dtd">

<svg xmlns="http://www.w3.org/2000/svg"
     width="270.995mm" height="270.995mm"
     viewBox="0 0 768 768">
  <path id="Selection"
        fill="white"
        d="M 166.00,107.42
           C 173.33,106.53 180.84,107.39 188.00,109.13
             237.69,121.21 254.88,183.91 218.83,219.83
             207.41,231.21 192.74,236.83 177.00,238.72
             169.36,239.63 159.31,238.00 152.00,235.66
             116.78,224.37 98.34,186.92 109.75,152.00
             118.43,125.41 139.37,111.45 166.00,107.42 Z
           M 408.00,338.00
           C 412.87,333.87 417.84,324.92 423.17,319.00
             434.25,306.69 451.35,294.40 467.00,288.69
             482.69,282.98 494.39,280.68 511.00,279.96
             511.00,279.96 518.00,279.34 518.00,279.34
             518.00,279.34 532.00,280.00 532.00,280.00
             543.25,280.14 560.16,283.45 571.00,286.72
             580.64,289.62 590.51,294.03 599.00,299.44
             619.94,312.77 632.59,333.10 640.69,356.00
             654.63,395.41 653.00,437.83 653.00,479.00
             653.00,479.00 653.00,520.00 653.00,520.00
             653.00,520.00 653.00,576.00 653.00,576.00
             653.00,576.00 653.00,653.00 653.00,653.00
             653.00,653.00 540.00,653.00 540.00,653.00
             540.00,653.00 540.00,495.00 540.00,495.00
             540.00,470.52 541.35,430.82 530.74,409.00
             525.98,399.21 520.53,391.75 511.00,386.09
             491.24,374.35 455.37,376.91 438.00,392.18
             418.48,409.34 413.29,435.10 413.00,460.00
             413.00,460.00 412.00,475.00 412.00,475.00
             412.00,475.00 412.00,608.00 412.00,608.00
             412.00,608.00 412.00,639.00 412.00,639.00
             412.00,641.66 412.48,649.51 410.98,651.40
             409.41,653.38 405.30,653.00 403.00,653.00
             403.00,653.00 300.00,653.00 300.00,653.00
             300.00,653.00 300.00,288.00 300.00,288.00
             300.00,288.00 382.00,288.00 382.00,288.00
             382.00,288.00 401.00,288.00 401.00,288.00
             401.00,288.00 406.98,289.60 406.98,289.60
             406.98,289.60 408.00,297.00 408.00,297.00
             408.00,297.00 408.00,338.00 408.00,338.00 Z
           M 228.00,653.00
           C 228.00,653.00 142.00,653.00 142.00,653.00
             142.00,653.00 122.00,653.00 122.00,653.00
             122.00,653.00 116.02,651.40 116.02,651.40
             116.02,651.40 115.00,644.00 115.00,644.00
             115.00,644.00 115.00,441.00 115.00,441.00
             115.00,441.00 115.00,324.00 115.00,324.00
             115.00,324.00 115.00,297.00 115.00,297.00
             115.00,297.00 116.02,289.60 116.02,289.60
             116.02,289.60 124.00,288.00 124.00,288.00
             124.00,288.00 228.00,288.00 228.00,288.00
             228.00,288.00 228.00,653.00 228.00,653.00 Z" />
</svg>
