<?xml version="1.0" encoding="UTF-8" standalone="no"?>
<!DOCTYPE svg PUBLIC "-//W3C//DTD SVG 20010904//EN"
              "http://www.w3.org/TR/2001/REC-SVG-20010904/DTD/svg10.dtd">

<svg xmlns="http://www.w3.org/2000/svg"
     width="167.196mm" height="167.196mm"
     viewBox="0 0 474 474">
  <path id="Selection"
        fill="white" stroke="white" stroke-width="1"
        d="M 229.00,51.42
           C 237.50,50.39 249.66,52.29 258.00,54.37
             268.07,56.90 277.57,61.39 286.00,67.43
             328.37,97.79 335.48,156.97 302.54,197.00
             295.78,205.22 288.10,211.17 279.00,216.55
             263.67,225.61 247.50,228.20 230.00,228.00
             219.13,227.87 205.71,224.03 196.00,219.24
             155.86,199.45 136.07,152.28 151.44,110.00
             160.37,85.41 178.44,66.46 203.00,57.06
             212.34,53.49 219.36,52.82 229.00,51.42 Z
           M 175.00,224.87
           C 176.22,224.81 176.05,224.44 178.00,224.87
             178.00,224.87 198.00,234.72 198.00,234.72
             208.31,239.08 224.81,242.24 236.00,241.99
             247.67,241.72 262.22,238.62 273.00,234.14
             273.00,234.14 293.00,224.66 293.00,224.66
             296.80,224.55 302.93,229.38 306.00,231.58
             318.02,240.20 324.04,245.90 333.72,257.00
             350.92,276.73 362.44,299.31 370.67,324.00
             373.19,331.58 377.37,345.27 377.91,353.00
             379.73,379.18 359.76,398.96 334.00,399.00
             334.00,399.00 136.00,399.00 136.00,399.00
             113.18,398.96 92.28,382.92 92.00,359.00
             91.84,344.95 96.07,331.09 100.95,318.00
             110.56,292.20 123.61,268.81 143.01,249.00
             150.89,240.96 164.57,229.08 175.00,224.87 Z" />
</svg>
