<svg id="svg" version="1.1" xmlns="http://www.w3.org/2000/svg" xmlns:xlink="http://www.w3.org/1999/xlink" width="400" height="407.62812872467225" viewBox="0, 0, 400,407.62812872467225"><g id="svgg"><path id="path0" d="M206.400 76.400 C 206.400 76.620,206.929 76.800,207.576 76.800 C 208.223 76.800,208.864 76.620,209.000 76.400 C 209.147 76.162,208.671 76.000,207.824 76.000 C 207.041 76.000,206.400 76.180,206.400 76.400 M202.006 80.700 C 202.003 81.195,202.180 81.600,202.400 81.600 C 202.901 81.600,202.901 81.176,202.400 80.400 C 202.086 79.915,202.011 79.972,202.006 80.700 M202.006 110.500 C 202.011 111.228,202.086 111.285,202.400 110.800 C 202.901 110.024,202.901 109.600,202.400 109.600 C 202.180 109.600,202.003 110.005,202.006 110.500 M118.100 112.665 C 117.825 112.776,117.600 113.054,117.600 113.282 C 117.600 113.539,117.822 113.514,118.181 113.216 C 118.500 112.951,119.104 112.843,119.523 112.976 C 119.942 113.108,120.715 113.045,121.242 112.834 C 122.064 112.505,121.944 112.452,120.400 112.457 C 119.410 112.460,118.375 112.554,118.100 112.665 M294.335 112.826 C 294.925 113.062,295.516 113.057,295.935 112.812 C 296.442 112.516,296.220 112.427,295.000 112.438 C 293.601 112.449,293.517 112.498,294.335 112.826 M116.111 113.700 C 115.043 115.081,115.006 115.418,115.995 114.766 C 117.017 114.091,117.522 113.200,116.882 113.200 C 116.671 113.200,116.324 113.425,116.111 113.700 M298.247 113.778 C 298.383 114.132,298.874 114.625,299.337 114.873 C 300.150 115.308,300.158 115.291,299.556 114.384 C 298.812 113.263,297.885 112.834,298.247 113.778 M206.600 114.800 C 206.453 115.039,206.937 115.200,207.800 115.200 C 208.663 115.200,209.147 115.039,209.000 114.800 C 208.864 114.580,208.324 114.400,207.800 114.400 C 207.276 114.400,206.736 114.580,206.600 114.800 M203.200 131.200 C 203.530 131.413,205.510 131.588,207.600 131.588 C 209.690 131.588,211.670 131.413,212.000 131.200 C 212.405 130.938,210.974 130.812,207.600 130.812 C 204.226 130.812,202.795 130.938,203.200 131.200 M197.600 131.600 C 197.600 131.820,198.050 132.000,198.600 132.000 C 199.150 132.000,199.600 131.820,199.600 131.600 C 199.600 131.380,199.150 131.200,198.600 131.200 C 198.050 131.200,197.600 131.380,197.600 131.600 M215.600 131.600 C 215.600 131.820,216.050 132.000,216.600 132.000 C 217.150 132.000,217.600 131.820,217.600 131.600 C 217.600 131.380,217.150 131.200,216.600 131.200 C 216.050 131.200,215.600 131.380,215.600 131.600 M192.400 132.800 C 193.176 133.301,193.600 133.301,193.600 132.800 C 193.600 132.580,193.195 132.403,192.700 132.406 C 191.972 132.411,191.915 132.486,192.400 132.800 M143.692 134.075 C 143.779 134.336,144.064 134.621,144.325 134.708 C 144.618 134.806,144.707 134.623,144.557 134.233 C 144.278 133.506,143.452 133.355,143.692 134.075 M228.000 133.953 C 228.000 134.148,228.405 134.415,228.900 134.548 C 230.348 134.936,230.655 134.816,229.824 134.187 C 228.959 133.534,228.000 133.410,228.000 133.953 M178.400 136.800 C 178.400 137.020,178.100 137.200,177.733 137.200 C 177.367 137.200,177.173 137.306,177.303 137.437 C 177.637 137.770,179.200 137.223,179.200 136.773 C 179.200 136.568,179.020 136.400,178.800 136.400 C 178.580 136.400,178.400 136.580,178.400 136.800 M175.700 137.865 C 175.024 138.138,175.064 138.800,175.757 138.800 C 176.064 138.800,176.418 138.530,176.545 138.200 C 176.780 137.587,176.583 137.509,175.700 137.865 M238.400 138.067 C 238.400 138.323,238.518 138.415,238.663 138.270 C 238.808 138.125,239.168 138.207,239.463 138.452 C 239.801 138.733,240.000 138.747,240.000 138.492 C 240.000 138.268,239.715 137.976,239.367 137.843 C 238.497 137.509,238.400 137.532,238.400 138.067 M240.400 138.824 C 240.400 139.057,240.565 139.145,240.766 139.021 C 240.967 138.897,241.212 139.021,241.311 139.298 C 241.410 139.574,241.645 139.655,241.834 139.478 C 242.022 139.301,241.912 138.989,241.588 138.784 C 240.809 138.292,240.400 138.305,240.400 138.824 M142.915 141.338 C 142.209 141.812,141.624 142.335,141.615 142.500 C 141.584 143.117,142.392 142.762,143.664 141.600 C 145.179 140.217,144.789 140.080,142.915 141.338 M271.423 141.463 C 271.965 142.047,272.541 142.392,272.704 142.228 C 272.867 142.065,272.575 141.587,272.056 141.166 C 270.675 140.046,270.282 140.231,271.423 141.463 M278.400 142.024 C 278.400 142.257,278.220 142.336,278.000 142.200 C 277.780 142.064,277.600 142.157,277.600 142.406 C 277.600 143.004,278.886 142.742,279.100 142.100 C 279.192 141.825,279.072 141.600,278.833 141.600 C 278.595 141.600,278.400 141.791,278.400 142.024 M201.200 142.400 C 201.200 142.620,201.965 142.787,202.900 142.772 C 204.217 142.750,204.420 142.666,203.800 142.400 C 202.684 141.921,201.200 141.921,201.200 142.400 M212.000 142.400 C 211.554 142.688,211.784 142.789,212.900 142.794 C 213.725 142.797,214.400 142.620,214.400 142.400 C 214.400 141.891,212.788 141.891,212.000 142.400 M138.400 142.800 C 137.964 143.082,138.292 143.188,139.600 143.188 C 140.908 143.188,141.236 143.082,140.800 142.800 C 140.470 142.587,139.930 142.412,139.600 142.412 C 139.270 142.412,138.730 142.587,138.400 142.800 M197.400 142.800 C 197.253 143.038,197.690 143.189,198.476 143.172 C 199.579 143.148,199.667 143.086,199.000 142.800 C 197.915 142.334,197.688 142.334,197.400 142.800 M216.800 142.800 C 216.315 143.114,216.372 143.189,217.100 143.194 C 217.595 143.197,218.000 143.020,218.000 142.800 C 218.000 142.299,217.576 142.299,216.800 142.800 M274.400 142.800 C 273.964 143.082,274.292 143.188,275.600 143.188 C 276.908 143.188,277.236 143.082,276.800 142.800 C 276.470 142.587,275.930 142.412,275.600 142.412 C 275.270 142.412,274.730 142.587,274.400 142.800 M192.600 144.000 C 192.464 144.220,192.623 144.400,192.953 144.400 C 193.283 144.400,193.664 144.220,193.800 144.000 C 193.936 143.780,193.777 143.600,193.447 143.600 C 193.117 143.600,192.736 143.780,192.600 144.000 M221.600 144.000 C 221.600 144.220,221.870 144.400,222.200 144.400 C 222.530 144.400,222.800 144.220,222.800 144.000 C 222.800 143.780,222.530 143.600,222.200 143.600 C 221.870 143.600,221.600 143.780,221.600 144.000 M190.800 144.400 C 190.800 144.620,191.070 144.800,191.400 144.800 C 191.730 144.800,192.000 144.620,192.000 144.400 C 192.000 144.180,191.730 144.000,191.400 144.000 C 191.070 144.000,190.800 144.180,190.800 144.400 M227.000 145.200 C 226.864 145.420,226.929 145.600,227.144 145.600 C 227.359 145.600,227.864 145.725,228.267 145.878 C 228.954 146.138,228.957 146.112,228.329 145.478 C 227.552 144.694,227.340 144.650,227.000 145.200 M251.206 145.014 C 251.217 145.703,251.948 146.585,252.254 146.279 C 252.418 146.115,252.248 145.677,251.876 145.305 C 251.504 144.933,251.203 144.802,251.206 145.014 M184.300 146.276 C 183.915 146.376,183.600 146.625,183.600 146.829 C 183.600 147.395,184.386 147.271,185.057 146.600 C 185.665 145.992,185.559 145.947,184.300 146.276 M230.071 146.522 C 230.817 147.274,231.600 147.417,231.600 146.800 C 231.600 146.580,231.435 146.400,231.233 146.400 C 231.031 146.400,230.536 146.275,230.133 146.122 C 229.446 145.862,229.443 145.888,230.071 146.522 M161.238 146.955 C 160.954 147.297,160.914 147.623,161.139 147.762 C 161.346 147.890,161.629 147.701,161.768 147.340 C 162.107 146.456,161.823 146.250,161.238 146.955 M181.656 147.613 C 181.136 148.046,180.813 148.400,180.937 148.400 C 181.482 148.400,183.200 147.440,183.200 147.136 C 183.200 146.602,182.674 146.765,181.656 147.613 M232.000 147.157 C 232.000 147.354,232.285 147.624,232.633 147.757 C 233.493 148.087,233.600 148.067,233.600 147.576 C 233.600 147.343,233.420 147.264,233.200 147.400 C 232.980 147.536,232.800 147.457,232.800 147.224 C 232.800 146.991,232.620 146.800,232.400 146.800 C 232.180 146.800,232.000 146.961,232.000 147.157 M158.045 149.676 C 156.675 151.137,156.415 151.850,157.500 151.165 C 158.381 150.609,159.744 148.810,159.482 148.549 C 159.374 148.441,158.727 148.948,158.045 149.676 M255.600 148.730 C 255.600 148.912,256.050 149.483,256.600 150.000 C 257.746 151.076,257.894 150.820,256.954 149.386 C 256.322 148.422,255.600 148.072,255.600 148.730 M178.426 149.369 C 178.039 149.835,178.102 149.898,178.777 149.722 C 179.230 149.604,179.600 149.348,179.600 149.153 C 179.600 148.614,178.954 148.732,178.426 149.369 M207.881 150.441 C 208.198 150.758,208.532 150.761,209.061 150.454 C 209.709 150.077,209.654 150.023,208.620 150.012 C 207.759 150.003,207.560 150.120,207.881 150.441 M210.800 151.120 C 210.800 151.541,211.669 152.400,212.094 152.400 C 212.278 152.400,212.235 152.040,212.000 151.600 C 211.577 150.810,210.800 150.499,210.800 151.120 M212.658 154.000 C 212.975 155.725,213.202 156.051,213.194 154.767 C 213.191 154.235,213.011 153.530,212.794 153.200 C 212.518 152.778,212.477 153.015,212.658 154.000 M202.000 154.600 C 202.000 155.196,202.172 155.541,202.400 155.400 C 202.620 155.264,202.800 154.904,202.800 154.600 C 202.800 154.296,202.620 153.936,202.400 153.800 C 202.172 153.659,202.000 154.004,202.000 154.600 M245.412 154.780 C 245.283 154.989,245.556 155.363,246.019 155.610 C 246.791 156.023,246.824 155.992,246.416 155.230 C 245.920 154.303,245.754 154.228,245.412 154.780 M262.695 156.079 C 263.399 156.783,264.090 157.243,264.232 157.102 C 264.538 156.795,262.473 154.800,261.849 154.800 C 261.611 154.800,261.991 155.376,262.695 156.079 M151.999 155.733 C 151.670 155.990,151.130 156.544,150.800 156.965 C 150.024 157.956,151.539 157.238,152.390 156.212 C 153.048 155.419,152.797 155.111,151.999 155.733 M227.612 155.984 C 227.288 156.189,227.178 156.501,227.366 156.678 C 227.555 156.855,227.790 156.774,227.889 156.498 C 227.988 156.221,228.233 156.097,228.434 156.221 C 228.635 156.345,228.800 156.257,228.800 156.024 C 228.800 155.505,228.391 155.492,227.612 155.984 M202.006 156.900 C 202.011 157.628,202.086 157.685,202.400 157.200 C 202.901 156.424,202.901 156.000,202.400 156.000 C 202.180 156.000,202.003 156.405,202.006 156.900 M233.200 156.357 C 233.200 156.554,233.485 156.824,233.833 156.957 C 234.811 157.333,234.908 157.251,234.257 156.600 C 233.577 155.920,233.200 155.833,233.200 156.357 M166.173 157.497 L 165.454 158.594 166.405 157.963 C 167.421 157.288,167.918 156.400,167.279 156.400 C 167.066 156.400,166.568 156.894,166.173 157.497 M247.600 156.667 C 247.600 156.850,248.275 157.533,249.100 158.184 L 250.600 159.368 249.566 158.006 C 248.545 156.662,247.600 156.018,247.600 156.667 M235.317 157.701 C 235.418 157.975,235.703 158.155,235.950 158.100 C 236.197 158.045,236.400 158.180,236.400 158.400 C 236.400 158.620,236.595 158.800,236.833 158.800 C 237.573 158.800,237.008 157.894,236.046 157.539 C 235.380 157.292,235.183 157.336,235.317 157.701 M225.384 158.027 C 225.239 158.261,225.216 158.549,225.333 158.667 C 225.620 158.953,226.400 158.448,226.400 157.976 C 226.400 157.465,225.709 157.499,225.384 158.027 M148.991 159.209 C 148.176 160.111,148.640 160.248,149.724 159.426 C 150.122 159.124,150.281 158.774,150.077 158.648 C 149.874 158.522,149.385 158.775,148.991 159.209 M265.200 158.798 C 265.200 159.004,265.556 159.362,265.991 159.595 C 266.626 159.935,266.738 159.904,266.560 159.440 C 266.302 158.767,265.200 158.247,265.200 158.798 M202.892 159.275 C 203.091 159.873,204.000 160.202,204.000 159.676 C 204.000 159.461,203.715 159.176,203.367 159.043 C 202.977 158.893,202.794 158.982,202.892 159.275 M211.402 159.598 C 211.003 160.039,210.862 160.400,211.089 160.400 C 211.592 160.400,212.590 159.257,212.321 158.988 C 212.215 158.882,211.802 159.156,211.402 159.598 M224.800 160.400 C 224.800 160.840,224.980 161.200,225.200 161.200 C 225.420 161.200,225.600 160.840,225.600 160.400 C 225.600 159.960,225.420 159.600,225.200 159.600 C 224.980 159.600,224.800 159.960,224.800 160.400 M147.628 160.966 C 146.996 161.728,147.185 162.104,147.960 161.625 C 148.256 161.442,148.424 161.072,148.334 160.802 C 148.218 160.454,148.014 160.501,147.628 160.966 M206.905 161.087 C 207.514 161.179,208.414 161.177,208.905 161.082 C 209.397 160.987,208.900 160.911,207.800 160.914 C 206.700 160.917,206.297 160.995,206.905 161.087 M242.995 162.937 C 243.378 163.521,243.941 164.000,244.246 164.000 C 245.073 164.000,244.931 163.748,243.549 162.764 L 242.299 161.873 242.995 162.937 M268.000 162.757 C 268.000 162.954,268.281 163.222,268.625 163.354 C 268.969 163.486,269.150 163.757,269.028 163.955 C 268.905 164.154,269.076 164.420,269.407 164.547 C 269.939 164.751,269.937 164.639,269.394 163.589 C 268.813 162.465,268.000 161.980,268.000 162.757 M254.733 163.905 C 255.240 164.617,255.822 165.200,256.027 165.200 C 256.788 165.200,256.361 164.427,255.105 163.533 L 253.811 162.611 254.733 163.905 M159.544 163.966 C 159.025 164.387,158.723 164.855,158.873 165.006 C 159.239 165.373,159.902 164.930,160.412 163.978 C 160.935 163.001,160.738 162.998,159.544 163.966 M225.200 163.776 C 225.200 164.377,225.918 165.015,226.236 164.697 C 226.515 164.418,225.963 163.200,225.557 163.200 C 225.361 163.200,225.200 163.459,225.200 163.776 M270.092 165.675 C 270.291 166.273,271.200 166.602,271.200 166.076 C 271.200 165.861,270.915 165.576,270.567 165.443 C 270.177 165.293,269.994 165.382,270.092 165.675 M157.429 166.629 C 157.005 166.938,156.785 167.318,156.939 167.472 C 157.093 167.626,157.519 167.452,157.886 167.086 C 158.749 166.222,158.426 165.899,157.429 166.629 M256.800 166.306 C 256.800 166.731,257.659 167.600,258.080 167.600 C 258.701 167.600,258.390 166.823,257.600 166.400 C 257.160 166.165,256.800 166.122,256.800 166.306 M258.700 168.737 C 259.085 169.142,259.546 169.394,259.724 169.298 C 259.902 169.202,259.722 168.876,259.324 168.574 C 258.273 167.777,257.884 167.878,258.700 168.737 M248.996 168.806 C 248.786 169.146,250.705 170.680,250.933 170.354 C 250.992 170.269,250.630 169.806,250.129 169.323 C 249.628 168.841,249.118 168.609,248.996 168.806 M141.700 170.623 C 141.111 171.263,141.062 171.600,141.557 171.600 C 141.898 171.600,142.537 170.396,142.309 170.183 C 142.249 170.127,141.975 170.325,141.700 170.623 M260.097 170.880 C 260.642 171.833,262.213 173.656,261.924 173.000 C 261.827 172.780,261.517 172.015,261.235 171.300 C 260.953 170.585,260.468 170.000,260.157 170.000 C 259.690 170.000,259.680 170.151,260.097 170.880 M272.806 170.300 C 272.817 170.847,273.553 171.781,273.788 171.546 C 274.103 171.231,273.601 170.000,273.157 170.000 C 272.961 170.000,272.803 170.135,272.806 170.300 M235.256 171.141 C 235.818 172.041,237.464 173.175,236.981 172.330 C 236.455 171.410,235.489 170.400,235.135 170.400 C 234.947 170.400,235.001 170.733,235.256 171.141 M153.784 171.627 C 153.639 171.861,153.616 172.149,153.733 172.267 C 154.020 172.553,154.800 172.048,154.800 171.576 C 154.800 171.065,154.109 171.099,153.784 171.627 M140.464 173.019 C 139.887 174.285,139.887 174.400,140.467 174.400 C 140.723 174.400,140.822 174.289,140.686 174.152 C 140.550 174.016,140.700 173.643,141.019 173.324 C 141.660 172.683,141.787 172.000,141.264 172.000 C 141.080 172.000,140.720 172.458,140.464 173.019 M252.892 173.675 C 253.091 174.273,254.000 174.602,254.000 174.076 C 254.000 173.861,253.715 173.576,253.367 173.443 C 252.977 173.293,252.794 173.382,252.892 173.675 M152.498 173.889 C 152.221 173.988,152.097 174.233,152.221 174.434 C 152.345 174.635,152.257 174.800,152.024 174.800 C 151.791 174.800,151.600 174.980,151.600 175.200 C 151.600 175.871,152.178 175.647,152.731 174.761 C 153.310 173.834,153.253 173.619,152.498 173.889 M139.300 175.423 C 138.711 176.063,138.662 176.400,139.157 176.400 C 139.498 176.400,140.137 175.196,139.909 174.983 C 139.849 174.927,139.575 175.125,139.300 175.423 M275.489 175.249 C 275.736 175.496,275.842 175.946,275.726 176.249 C 275.610 176.552,275.714 176.800,275.957 176.800 C 276.201 176.800,276.400 176.635,276.400 176.433 C 276.400 175.683,275.901 174.800,275.477 174.800 C 275.168 174.800,275.171 174.931,275.489 175.249 M151.043 176.633 C 150.667 177.611,150.749 177.708,151.400 177.057 C 152.080 176.377,152.167 176.000,151.643 176.000 C 151.446 176.000,151.176 176.285,151.043 176.633 M241.200 176.689 C 241.200 177.192,242.343 178.190,242.612 177.921 C 242.718 177.815,242.444 177.402,242.002 177.002 C 241.561 176.603,241.200 176.462,241.200 176.689 M138.400 177.087 C 138.400 177.333,138.291 177.819,138.157 178.167 C 138.021 178.521,138.120 178.800,138.381 178.800 C 138.637 178.800,138.745 178.635,138.621 178.434 C 138.497 178.233,138.621 177.985,138.898 177.884 C 139.300 177.737,139.300 177.594,138.900 177.170 C 138.581 176.832,138.400 176.802,138.400 177.087 M276.385 177.782 C 276.651 178.103,276.753 178.553,276.611 178.782 C 276.469 179.012,276.543 179.200,276.776 179.200 C 277.009 179.200,277.200 179.035,277.200 178.833 C 277.200 178.104,276.706 177.200,276.308 177.200 C 276.069 177.200,276.100 177.439,276.385 177.782 M264.557 178.633 C 264.691 178.981,264.800 179.467,264.800 179.713 C 264.800 179.998,264.981 179.968,265.300 179.630 C 265.700 179.206,265.700 179.063,265.298 178.916 C 265.021 178.815,264.897 178.567,265.021 178.366 C 265.145 178.165,265.037 178.000,264.781 178.000 C 264.520 178.000,264.421 178.279,264.557 178.633 M149.779 179.166 C 149.903 179.367,149.779 179.615,149.502 179.716 C 149.100 179.863,149.100 180.006,149.500 180.430 C 149.819 180.768,150.000 180.798,150.000 180.513 C 150.000 180.267,150.109 179.781,150.243 179.433 C 150.379 179.079,150.280 178.800,150.019 178.800 C 149.763 178.800,149.655 178.965,149.779 179.166 M242.875 179.225 C 242.971 179.514,243.286 179.829,243.575 179.925 C 243.875 180.025,244.025 179.875,243.925 179.575 C 243.829 179.286,243.514 178.971,243.225 178.875 C 242.925 178.775,242.775 178.925,242.875 179.225 M148.590 182.030 C 148.446 182.487,148.433 182.967,148.563 183.097 C 148.694 183.227,148.800 183.033,148.800 182.667 C 148.800 182.300,148.980 182.000,149.200 182.000 C 149.420 182.000,149.600 181.820,149.600 181.600 C 149.600 180.870,148.858 181.186,148.590 182.030 M265.600 181.600 C 265.600 181.820,265.780 182.000,266.000 182.000 C 266.220 182.000,266.400 182.300,266.400 182.667 C 266.400 183.033,266.506 183.227,266.637 183.097 C 266.970 182.763,266.423 181.200,265.973 181.200 C 265.768 181.200,265.600 181.380,265.600 181.600 M136.400 182.600 C 136.400 182.930,136.580 183.200,136.800 183.200 C 137.020 183.200,137.200 182.930,137.200 182.600 C 137.200 182.270,137.020 182.000,136.800 182.000 C 136.580 182.000,136.400 182.270,136.400 182.600 M135.600 185.800 C 135.600 186.130,135.780 186.400,136.000 186.400 C 136.220 186.400,136.400 186.130,136.400 185.800 C 136.400 185.470,136.220 185.200,136.000 185.200 C 135.780 185.200,135.600 185.470,135.600 185.800 M146.800 186.600 C 146.800 186.930,146.980 187.200,147.200 187.200 C 147.420 187.200,147.600 186.930,147.600 186.600 C 147.600 186.270,147.420 186.000,147.200 186.000 C 146.980 186.000,146.800 186.270,146.800 186.600 M260.213 188.400 C 260.555 189.595,260.721 189.813,261.041 189.493 C 261.173 189.360,260.977 188.835,260.604 188.326 L 259.926 187.400 260.213 188.400 M268.178 188.035 C 268.031 188.274,268.110 188.670,268.355 188.915 C 268.682 189.242,268.800 189.126,268.800 188.480 C 268.800 187.514,268.592 187.365,268.178 188.035 M146.000 190.000 C 146.000 190.440,146.180 190.800,146.400 190.800 C 146.620 190.800,146.800 190.440,146.800 190.000 C 146.800 189.560,146.620 189.200,146.400 189.200 C 146.180 189.200,146.000 189.560,146.000 190.000 M260.800 191.000 C 260.800 191.330,260.980 191.600,261.200 191.600 C 261.420 191.600,261.600 191.330,261.600 191.000 C 261.600 190.670,261.420 190.400,261.200 190.400 C 260.980 190.400,260.800 190.670,260.800 191.000 M280.400 192.200 C 280.400 192.530,280.580 192.800,280.800 192.800 C 281.020 192.800,281.200 192.530,281.200 192.200 C 281.200 191.870,281.020 191.600,280.800 191.600 C 280.580 191.600,280.400 191.870,280.400 192.200 M144.806 194.100 C 144.820 195.242,145.588 195.826,145.594 194.700 C 145.597 194.095,145.420 193.600,145.200 193.600 C 144.980 193.600,144.803 193.825,144.806 194.100 M269.600 194.824 C 269.600 195.277,269.780 195.536,270.000 195.400 C 270.220 195.264,270.400 194.893,270.400 194.576 C 270.400 194.259,270.220 194.000,270.000 194.000 C 269.780 194.000,269.600 194.371,269.600 194.824 M133.600 195.200 C 133.600 195.640,133.780 196.000,134.000 196.000 C 134.220 196.000,134.400 195.640,134.400 195.200 C 134.400 194.760,134.220 194.400,134.000 194.400 C 133.780 194.400,133.600 194.760,133.600 195.200 M261.879 194.957 C 261.715 195.374,261.675 195.809,261.791 195.924 C 262.155 196.289,262.476 195.691,262.324 194.931 C 262.183 194.235,262.162 194.236,261.879 194.957 M280.800 195.200 C 280.800 195.640,280.980 196.000,281.200 196.000 C 281.420 196.000,281.600 195.640,281.600 195.200 C 281.600 194.760,281.420 194.400,281.200 194.400 C 280.980 194.400,280.800 194.760,280.800 195.200 M250.400 195.400 C 250.400 195.730,250.580 196.000,250.800 196.000 C 251.020 196.000,251.200 195.730,251.200 195.400 C 251.200 195.070,251.020 194.800,250.800 194.800 C 250.580 194.800,250.400 195.070,250.400 195.400 M144.400 197.376 C 144.400 197.693,144.580 198.064,144.800 198.200 C 145.020 198.336,145.200 198.077,145.200 197.624 C 145.200 197.171,145.020 196.800,144.800 196.800 C 144.580 196.800,144.400 197.059,144.400 197.376 M270.006 198.100 C 270.011 199.086,270.106 199.255,270.400 198.800 C 270.908 198.014,270.908 196.800,270.400 196.800 C 270.180 196.800,270.003 197.385,270.006 198.100 M262.302 198.200 C 262.197 198.750,262.266 199.200,262.455 199.200 C 262.645 199.200,262.800 198.750,262.800 198.200 C 262.800 197.650,262.731 197.200,262.647 197.200 C 262.562 197.200,262.407 197.650,262.302 198.200 M133.200 199.176 C 133.200 200.069,133.380 200.800,133.600 200.800 C 133.820 200.800,134.000 200.181,134.000 199.424 C 134.000 198.667,133.820 197.936,133.600 197.800 C 133.358 197.651,133.200 198.196,133.200 199.176 M281.454 199.129 C 281.272 199.859,281.231 200.564,281.362 200.695 C 281.814 201.147,282.056 200.472,281.920 199.138 L 281.784 197.800 281.454 199.129 M81.212 200.384 C 80.888 200.589,80.778 200.901,80.966 201.078 C 81.155 201.255,81.387 201.185,81.481 200.922 C 81.575 200.660,81.892 200.537,82.185 200.650 C 82.479 200.762,82.838 200.662,82.983 200.427 C 83.309 199.901,82.026 199.870,81.212 200.384 M332.800 200.424 C 332.800 200.657,332.965 200.745,333.166 200.621 C 333.367 200.497,333.612 200.621,333.711 200.898 C 333.810 201.174,334.045 201.255,334.234 201.078 C 334.422 200.901,334.312 200.589,333.988 200.384 C 333.209 199.892,332.800 199.905,332.800 200.424 M251.600 201.667 C 251.600 203.123,251.775 203.070,252.151 201.500 C 252.308 200.847,252.250 200.400,252.008 200.400 C 251.783 200.400,251.600 200.970,251.600 201.667 M144.000 205.600 C 144.000 208.000,144.160 209.600,144.400 209.600 C 144.640 209.600,144.800 208.000,144.800 205.600 C 144.800 203.200,144.640 201.600,144.400 201.600 C 144.160 201.600,144.000 203.200,144.000 205.600 M262.800 204.367 C 262.800 205.669,262.686 207.064,262.546 207.467 C 262.323 208.111,262.370 208.103,262.933 207.400 C 263.652 206.503,263.874 202.000,263.200 202.000 C 262.978 202.000,262.800 203.056,262.800 204.367 M270.400 205.800 C 270.400 208.067,270.561 209.600,270.800 209.600 C 271.039 209.600,271.200 208.067,271.200 205.800 C 271.200 203.533,271.039 202.000,270.800 202.000 C 270.561 202.000,270.400 203.533,270.400 205.800 M78.643 203.033 C 78.294 203.941,78.343 204.400,78.787 204.400 C 79.001 204.400,79.071 204.130,78.945 203.800 C 78.818 203.470,78.914 203.200,79.157 203.200 C 79.401 203.200,79.600 203.020,79.600 202.800 C 79.600 202.167,78.911 202.335,78.643 203.033 M116.122 202.933 C 116.275 203.336,116.400 203.831,116.400 204.033 C 116.400 204.235,116.580 204.400,116.800 204.400 C 117.417 204.400,117.274 203.617,116.522 202.871 C 115.888 202.243,115.862 202.246,116.122 202.933 M78.400 207.000 C 78.400 207.330,78.580 207.600,78.800 207.600 C 79.020 207.600,79.200 207.330,79.200 207.000 C 79.200 206.670,79.020 206.400,78.800 206.400 C 78.580 206.400,78.400 206.670,78.400 207.000 M116.400 207.000 C 116.400 207.330,116.580 207.600,116.800 207.600 C 117.020 207.600,117.200 207.330,117.200 207.000 C 117.200 206.670,117.020 206.400,116.800 206.400 C 116.580 206.400,116.400 206.670,116.400 207.000 M261.384 208.827 C 261.239 209.061,261.216 209.349,261.333 209.467 C 261.620 209.753,262.400 209.248,262.400 208.776 C 262.400 208.265,261.709 208.299,261.384 208.827 M252.875 209.225 C 252.971 209.514,253.286 209.829,253.575 209.925 C 253.875 210.025,254.025 209.875,253.925 209.575 C 253.829 209.286,253.514 208.971,253.225 208.875 C 252.925 208.775,252.775 208.925,252.875 209.225 M299.292 209.275 C 299.491 209.873,300.400 210.202,300.400 209.676 C 300.400 209.461,300.115 209.176,299.767 209.043 C 299.377 208.893,299.194 208.982,299.292 209.275 M133.200 211.824 C 133.200 212.671,133.362 213.147,133.600 213.000 C 133.820 212.864,134.000 212.223,134.000 211.576 C 134.000 210.929,133.820 210.400,133.600 210.400 C 133.380 210.400,133.200 211.041,133.200 211.824 M281.354 210.976 C 281.232 211.292,281.323 211.877,281.554 212.276 C 281.912 212.891,281.978 212.805,281.988 211.700 C 282.001 210.329,281.724 210.012,281.354 210.976 M302.146 210.963 C 303.512 211.722,332.000 211.949,332.000 211.200 C 332.000 210.941,326.896 210.798,317.500 210.795 C 309.525 210.792,302.550 210.685,302.000 210.558 C 301.062 210.340,301.071 210.366,302.146 210.963 M83.200 211.200 C 83.200 211.459,88.325 211.600,97.776 211.600 C 107.063 211.600,112.443 211.455,112.600 211.200 C 112.763 210.936,107.804 210.800,98.024 210.800 C 88.408 210.800,83.200 210.941,83.200 211.200 M256.400 211.200 C 256.400 211.420,256.839 211.600,257.376 211.600 C 257.913 211.600,258.464 211.420,258.600 211.200 C 258.744 210.967,258.337 210.800,257.624 210.800 C 256.951 210.800,256.400 210.980,256.400 211.200 M270.000 213.176 C 270.000 213.849,270.180 214.400,270.400 214.400 C 270.620 214.400,270.800 213.961,270.800 213.424 C 270.800 212.887,270.620 212.336,270.400 212.200 C 270.167 212.056,270.000 212.463,270.000 213.176 M144.612 212.917 C 144.441 213.312,144.413 213.747,144.551 213.884 C 144.957 214.290,145.284 213.720,145.097 212.931 C 144.932 212.233,144.910 212.232,144.612 212.917 M280.800 215.776 C 280.800 216.093,280.980 216.464,281.200 216.600 C 281.420 216.736,281.600 216.477,281.600 216.024 C 281.600 215.571,281.420 215.200,281.200 215.200 C 280.980 215.200,280.800 215.459,280.800 215.776 M133.600 216.400 C 133.600 216.840,133.780 217.200,134.000 217.200 C 134.220 217.200,134.400 216.840,134.400 216.400 C 134.400 215.960,134.220 215.600,134.000 215.600 C 133.780 215.600,133.600 215.960,133.600 216.400 M145.030 216.267 C 144.889 216.634,144.960 217.120,145.187 217.347 C 145.471 217.631,145.600 217.423,145.600 216.680 C 145.600 215.446,145.400 215.301,145.030 216.267 M269.600 216.600 C 269.600 217.196,269.772 217.541,270.000 217.400 C 270.220 217.264,270.400 216.904,270.400 216.600 C 270.400 216.296,270.220 215.936,270.000 215.800 C 269.772 215.659,269.600 216.004,269.600 216.600 M280.400 219.224 C 280.400 219.677,280.580 219.936,280.800 219.800 C 281.020 219.664,281.200 219.293,281.200 218.976 C 281.200 218.659,281.020 218.400,280.800 218.400 C 280.580 218.400,280.400 218.771,280.400 219.224 M146.000 221.000 C 146.000 221.330,146.180 221.600,146.400 221.600 C 146.620 221.600,146.800 221.330,146.800 221.000 C 146.800 220.670,146.620 220.400,146.400 220.400 C 146.180 220.400,146.000 220.670,146.000 221.000 M268.000 222.600 C 268.000 222.930,268.180 223.200,268.400 223.200 C 268.620 223.200,268.800 222.930,268.800 222.600 C 268.800 222.270,268.620 222.000,268.400 222.000 C 268.180 222.000,268.000 222.270,268.000 222.600 M146.800 224.600 C 146.800 224.930,146.999 225.200,147.243 225.200 C 147.486 225.200,147.582 225.470,147.455 225.800 C 147.329 226.130,147.399 226.400,147.613 226.400 C 148.059 226.400,148.082 226.147,147.748 224.900 C 147.477 223.890,146.800 223.676,146.800 224.600 M267.452 224.900 C 267.111 226.172,267.140 226.400,267.643 226.400 C 267.886 226.400,267.982 226.130,267.855 225.800 C 267.729 225.470,267.799 225.200,268.013 225.200 C 268.226 225.200,268.400 224.930,268.400 224.600 C 268.400 223.676,267.723 223.890,267.452 224.900 M136.000 227.000 C 136.000 227.330,136.180 227.600,136.400 227.600 C 136.620 227.600,136.800 227.330,136.800 227.000 C 136.800 226.670,136.620 226.400,136.400 226.400 C 136.180 226.400,136.000 226.670,136.000 227.000 M136.400 228.600 C 136.400 228.930,136.580 229.200,136.800 229.200 C 137.020 229.200,137.200 228.930,137.200 228.600 C 137.200 228.270,137.020 228.000,136.800 228.000 C 136.580 228.000,136.400 228.270,136.400 228.600 M277.824 229.047 C 277.679 229.623,277.660 230.193,277.781 230.314 C 277.901 230.435,278.000 230.233,278.000 229.867 C 278.000 229.500,278.180 229.200,278.400 229.200 C 278.620 229.200,278.800 228.930,278.800 228.600 C 278.800 227.607,278.106 227.925,277.824 229.047 M148.806 229.700 C 148.814 230.369,149.504 231.430,149.762 231.171 C 150.072 230.861,149.559 229.200,149.153 229.200 C 148.959 229.200,148.803 229.425,148.806 229.700 M265.463 230.083 C 265.336 230.568,265.324 231.058,265.438 231.171 C 265.696 231.430,266.386 230.369,266.394 229.700 C 266.404 228.859,265.708 229.145,265.463 230.083 M137.600 231.167 C 137.600 231.917,138.099 232.800,138.523 232.800 C 138.832 232.800,138.829 232.669,138.511 232.351 C 138.264 232.104,138.158 231.654,138.274 231.351 C 138.390 231.048,138.286 230.800,138.043 230.800 C 137.799 230.800,137.600 230.965,137.600 231.167 M138.406 233.700 C 138.414 234.369,139.104 235.430,139.362 235.171 C 139.672 234.861,139.159 233.200,138.753 233.200 C 138.559 233.200,138.403 233.425,138.406 233.700 M276.211 233.618 C 276.353 233.847,276.251 234.297,275.985 234.618 C 275.700 234.961,275.669 235.200,275.908 235.200 C 276.306 235.200,276.800 234.296,276.800 233.567 C 276.800 233.365,276.609 233.200,276.376 233.200 C 276.143 233.200,276.069 233.388,276.211 233.618 M151.206 234.700 C 151.217 235.247,151.953 236.181,152.188 235.946 C 152.503 235.631,152.001 234.400,151.557 234.400 C 151.361 234.400,151.203 234.535,151.206 234.700 M263.300 235.023 C 262.711 235.663,262.662 236.000,263.157 236.000 C 263.498 236.000,264.137 234.796,263.909 234.583 C 263.849 234.527,263.575 234.725,263.300 235.023 M274.794 236.700 C 274.501 237.305,274.292 237.935,274.330 238.100 C 274.369 238.265,274.209 238.400,273.976 238.400 C 273.743 238.400,273.664 238.580,273.800 238.800 C 273.936 239.020,273.837 239.200,273.581 239.200 C 273.324 239.200,273.214 239.458,273.335 239.774 C 273.456 240.090,273.340 240.436,273.078 240.543 C 272.735 240.682,272.748 240.746,273.120 240.768 C 273.407 240.786,273.902 240.125,274.222 239.300 C 274.542 238.475,275.064 237.305,275.383 236.700 C 275.702 236.095,275.820 235.600,275.646 235.600 C 275.471 235.600,275.088 236.095,274.794 236.700 M259.867 240.267 C 259.381 240.753,259.590 241.179,260.200 240.945 C 260.530 240.818,260.800 240.554,260.800 240.357 C 260.800 239.938,260.249 239.884,259.867 240.267 M142.557 241.833 C 142.691 242.181,142.800 242.541,142.800 242.633 C 142.800 242.725,143.002 242.800,143.249 242.800 C 143.579 242.800,143.580 242.658,143.252 242.263 C 143.007 241.968,142.925 241.608,143.070 241.463 C 143.215 241.318,143.104 241.200,142.824 241.200 C 142.524 241.200,142.414 241.460,142.557 241.833 M156.400 243.186 C 156.400 243.398,156.774 243.772,157.230 244.016 C 157.990 244.423,158.023 244.390,157.616 243.630 C 157.159 242.777,156.400 242.499,156.400 243.186 M257.600 243.600 C 257.365 244.040,257.322 244.400,257.506 244.400 C 257.931 244.400,258.800 243.541,258.800 243.120 C 258.800 242.499,258.023 242.810,257.600 243.600 M271.359 243.522 C 270.834 243.872,270.325 245.200,270.716 245.200 C 271.057 245.200,272.121 243.588,271.916 243.383 C 271.840 243.306,271.589 243.369,271.359 243.522 M158.400 245.533 C 158.400 245.930,159.270 246.800,159.667 246.800 C 159.837 246.800,159.877 246.544,159.757 246.231 C 159.518 245.610,158.400 245.035,158.400 245.533 M255.813 245.844 C 254.933 246.724,255.341 247.027,256.404 246.283 C 256.880 245.949,257.083 245.575,256.862 245.438 C 256.643 245.303,256.171 245.486,255.813 245.844 M146.800 248.689 C 146.800 249.192,147.943 250.190,148.212 249.921 C 148.318 249.815,148.044 249.402,147.602 249.002 C 147.161 248.603,146.800 248.462,146.800 248.689 M162.075 250.025 C 162.171 250.314,162.486 250.629,162.775 250.725 C 163.075 250.825,163.225 250.675,163.125 250.375 C 163.029 250.086,162.714 249.771,162.425 249.675 C 162.125 249.575,161.975 249.725,162.075 250.025 M251.295 250.977 C 250.337 252.078,250.591 252.334,251.779 251.465 C 252.181 251.171,252.437 250.711,252.347 250.442 C 252.245 250.135,251.854 250.333,251.295 250.977 M148.384 251.170 C 148.628 251.626,149.002 252.000,149.214 252.000 C 149.901 252.000,149.623 251.241,148.770 250.784 C 148.010 250.377,147.977 250.410,148.384 251.170 M265.784 251.227 C 265.639 251.461,265.616 251.749,265.733 251.867 C 266.020 252.153,266.800 251.648,266.800 251.176 C 266.800 250.665,266.109 250.699,265.784 251.227 M150.434 253.578 C 151.122 254.639,152.208 255.225,151.928 254.384 C 151.834 254.101,151.316 253.583,150.778 253.234 L 149.800 252.600 150.434 253.578 M246.441 255.287 C 244.154 257.617,243.134 259.177,244.700 257.949 C 245.800 257.086,249.185 253.433,249.193 253.100 C 249.206 252.542,248.888 252.795,246.441 255.287 M263.800 253.766 C 263.140 254.295,262.731 254.860,262.890 255.021 C 263.234 255.368,264.283 254.566,264.836 253.533 C 265.342 252.587,265.243 252.609,263.800 253.766 M166.400 253.532 C 166.400 253.935,172.194 259.600,172.606 259.600 C 173.002 259.600,172.302 258.791,169.292 255.766 C 166.711 253.172,166.400 252.932,166.400 253.532 M241.584 260.830 C 241.176 261.592,241.209 261.623,241.981 261.210 C 242.444 260.963,242.717 260.589,242.588 260.380 C 242.246 259.828,242.080 259.903,241.584 260.830 M173.200 260.755 C 173.200 261.195,174.359 262.174,174.598 261.936 C 174.696 261.838,174.421 261.454,173.988 261.083 C 173.555 260.711,173.200 260.564,173.200 260.755 M158.732 261.401 C 158.518 261.615,163.755 267.200,164.170 267.200 C 164.848 267.200,164.195 266.339,162.612 265.147 C 161.629 264.406,160.819 263.606,160.812 263.370 C 160.797 262.818,159.008 261.125,158.732 261.401 M253.622 263.816 C 252.204 265.224,251.155 266.489,251.292 266.625 C 251.524 266.858,256.800 261.860,256.800 261.407 C 256.800 260.852,255.983 261.471,253.622 263.816 M239.867 262.667 C 239.381 263.153,239.590 263.579,240.200 263.345 C 240.530 263.218,240.800 262.954,240.800 262.757 C 240.800 262.338,240.249 262.284,239.867 262.667 M176.400 265.200 C 176.400 265.420,176.591 265.600,176.824 265.600 C 177.057 265.600,177.148 265.761,177.026 265.958 C 176.904 266.155,177.066 266.416,177.385 266.539 C 177.865 266.723,177.888 266.592,177.518 265.781 C 177.071 264.798,176.400 264.450,176.400 265.200 M138.000 267.200 C 138.776 267.701,139.200 267.701,139.200 267.200 C 139.200 266.980,138.795 266.803,138.300 266.806 C 137.572 266.811,137.515 266.886,138.000 267.200 M274.000 267.200 C 274.000 267.420,274.270 267.600,274.600 267.600 C 274.930 267.600,275.200 267.420,275.200 267.200 C 275.200 266.980,274.930 266.800,274.600 266.800 C 274.270 266.800,274.000 266.980,274.000 267.200 M276.000 267.243 C 276.000 267.492,276.292 267.574,276.668 267.429 C 277.035 267.288,277.465 267.382,277.623 267.638 C 277.788 267.904,278.132 267.965,278.429 267.782 C 278.820 267.541,278.757 267.388,278.173 267.159 C 277.014 266.705,276.000 266.744,276.000 267.243 M136.184 267.627 C 136.039 267.861,136.016 268.149,136.133 268.267 C 136.420 268.553,137.200 268.048,137.200 267.576 C 137.200 267.065,136.509 267.099,136.184 267.627 M142.400 267.691 C 142.400 268.420,143.109 269.024,143.503 268.631 C 143.640 268.493,143.448 268.077,143.076 267.705 C 142.453 267.081,142.400 267.080,142.400 267.691 M249.876 268.174 C 249.478 268.476,249.311 268.821,249.505 268.941 C 249.699 269.061,250.158 268.808,250.525 268.380 C 251.293 267.482,250.937 267.370,249.876 268.174 M165.292 268.875 C 165.491 269.473,166.400 269.802,166.400 269.276 C 166.400 269.061,166.115 268.776,165.767 268.643 C 165.377 268.493,165.194 268.582,165.292 268.875 M270.000 270.600 C 270.000 270.930,270.180 271.200,270.400 271.200 C 270.620 271.200,270.800 270.930,270.800 270.600 C 270.800 270.270,270.620 270.000,270.400 270.000 C 270.180 270.000,270.000 270.270,270.000 270.600 M234.693 271.166 C 234.573 271.625,234.627 272.000,234.814 272.000 C 235.359 272.000,235.573 271.404,235.229 270.847 C 234.997 270.472,234.852 270.558,234.693 271.166 M180.406 271.871 C 180.418 272.484,181.155 273.378,181.426 273.107 C 181.574 272.959,181.404 272.547,181.048 272.190 C 180.691 271.834,180.403 271.691,180.406 271.871 M246.498 273.089 C 246.221 273.188,246.097 273.433,246.221 273.634 C 246.345 273.835,246.257 274.000,246.024 274.000 C 245.791 274.000,245.600 274.180,245.600 274.400 C 245.600 275.071,246.178 274.847,246.731 273.961 C 247.310 273.034,247.253 272.819,246.498 273.089 M270.000 274.200 C 270.000 274.530,270.180 274.800,270.400 274.800 C 270.620 274.800,270.800 274.530,270.800 274.200 C 270.800 273.870,270.620 273.600,270.400 273.600 C 270.180 273.600,270.000 273.870,270.000 274.200 M181.600 275.000 C 181.600 275.330,181.791 275.600,182.024 275.600 C 182.257 275.600,182.336 275.780,182.200 276.000 C 182.064 276.220,182.163 276.400,182.419 276.400 C 182.680 276.400,182.779 276.121,182.643 275.767 C 182.509 275.419,182.400 274.969,182.400 274.767 C 182.400 274.565,182.220 274.400,182.000 274.400 C 181.780 274.400,181.600 274.670,181.600 275.000 M232.643 275.433 C 232.313 276.293,232.333 276.400,232.824 276.400 C 233.057 276.400,233.136 276.220,233.000 276.000 C 232.864 275.780,232.943 275.600,233.176 275.600 C 233.409 275.600,233.600 275.420,233.600 275.200 C 233.600 274.567,232.911 274.735,232.643 275.433 M143.867 275.467 C 143.484 275.849,143.538 276.400,143.957 276.400 C 144.154 276.400,144.418 276.130,144.545 275.800 C 144.779 275.190,144.353 274.981,143.867 275.467 M170.006 275.900 C 170.020 276.557,170.776 277.356,171.078 277.034 C 171.255 276.845,171.174 276.610,170.898 276.511 C 170.621 276.412,170.497 276.167,170.621 275.966 C 170.745 275.765,170.657 275.600,170.424 275.600 C 170.191 275.600,170.003 275.735,170.006 275.900 M231.861 277.666 C 231.513 278.966,231.538 279.200,232.024 279.200 C 232.257 279.200,232.324 279.000,232.172 278.755 C 232.021 278.511,232.091 278.191,232.328 278.045 C 232.571 277.894,232.617 277.551,232.434 277.256 C 232.199 276.875,232.043 276.987,231.861 277.666 M243.779 278.366 C 243.903 278.567,243.779 278.812,243.502 278.911 C 243.226 279.010,243.145 279.245,243.322 279.434 C 243.499 279.622,243.811 279.512,244.016 279.188 C 244.508 278.409,244.495 278.000,243.976 278.000 C 243.743 278.000,243.655 278.165,243.779 278.366 M183.600 279.800 C 183.600 280.130,183.780 280.400,184.000 280.400 C 184.220 280.400,184.400 280.130,184.400 279.800 C 184.400 279.470,184.220 279.200,184.000 279.200 C 183.780 279.200,183.600 279.470,183.600 279.800 M242.186 281.883 C 242.014 282.277,241.911 282.764,241.958 282.963 C 242.004 283.163,241.809 283.471,241.524 283.647 C 241.147 283.880,241.126 284.086,241.448 284.408 C 241.771 284.731,242.008 284.387,242.325 283.138 C 242.784 281.330,242.712 280.678,242.186 281.883 M173.600 285.800 C 173.600 286.130,173.780 286.400,174.000 286.400 C 174.220 286.400,174.400 286.130,174.400 285.800 C 174.400 285.470,174.220 285.200,174.000 285.200 C 173.780 285.200,173.600 285.470,173.600 285.800 M240.800 285.800 C 240.800 286.130,240.980 286.400,241.200 286.400 C 241.420 286.400,241.600 286.130,241.600 285.800 C 241.600 285.470,241.420 285.200,241.200 285.200 C 240.980 285.200,240.800 285.470,240.800 285.800 M185.653 287.000 C 185.602 288.006,186.255 289.079,186.667 288.667 C 186.837 288.496,186.778 288.231,186.535 288.078 C 186.292 287.925,186.003 287.440,185.893 287.000 L 185.693 286.200 185.653 287.000 M229.061 287.687 C 228.761 288.836,228.917 288.945,229.507 288.000 C 229.769 287.581,229.828 287.141,229.637 287.023 C 229.447 286.905,229.188 287.204,229.061 287.687 M240.400 287.400 C 240.400 287.730,240.580 288.000,240.800 288.000 C 241.020 288.000,241.200 287.730,241.200 287.400 C 241.200 287.070,241.020 286.800,240.800 286.800 C 240.580 286.800,240.400 287.070,240.400 287.400 M115.043 289.433 C 114.683 290.370,114.746 290.800,115.243 290.800 C 115.486 290.800,115.590 290.552,115.474 290.249 C 115.358 289.946,115.464 289.496,115.711 289.249 C 116.029 288.931,116.032 288.800,115.723 288.800 C 115.482 288.800,115.176 289.085,115.043 289.433 M114.800 293.144 C 114.800 293.893,115.288 294.800,115.692 294.800 C 115.947 294.800,115.933 294.601,115.652 294.263 C 115.407 293.968,115.307 293.626,115.430 293.503 C 115.553 293.381,115.461 293.161,115.227 293.016 C 114.992 292.871,114.800 292.929,114.800 293.144 M192.400 293.200 C 192.400 293.460,197.733 293.600,207.600 293.600 C 217.467 293.600,222.800 293.460,222.800 293.200 C 222.800 292.940,217.467 292.800,207.600 292.800 C 197.733 292.800,192.400 292.940,192.400 293.200 M115.600 295.586 C 115.600 295.798,115.974 296.172,116.430 296.416 C 117.190 296.823,117.223 296.790,116.816 296.030 C 116.359 295.177,115.600 294.899,115.600 295.586 M298.800 295.600 C 298.483 295.796,298.356 296.089,298.518 296.252 C 298.681 296.414,299.023 296.337,299.280 296.080 C 299.884 295.476,299.547 295.138,298.800 295.600 M291.600 296.357 C 291.600 296.554,291.885 296.824,292.233 296.957 C 293.093 297.287,293.200 297.267,293.200 296.776 C 293.200 296.543,293.020 296.464,292.800 296.600 C 292.580 296.736,292.400 296.657,292.400 296.424 C 292.400 296.191,292.220 296.000,292.000 296.000 C 291.780 296.000,291.600 296.161,291.600 296.357 M178.075 296.825 C 178.171 297.114,178.486 297.429,178.775 297.525 C 179.075 297.625,179.225 297.475,179.125 297.175 C 179.029 296.886,178.714 296.571,178.425 296.475 C 178.125 296.375,177.975 296.525,178.075 296.825 M119.300 297.476 C 119.685 297.576,120.315 297.576,120.700 297.476 C 121.085 297.375,120.770 297.293,120.000 297.293 C 119.230 297.293,118.915 297.375,119.300 297.476 M190.200 304.000 C 190.064 304.220,190.323 304.400,190.776 304.400 C 191.229 304.400,191.600 304.220,191.600 304.000 C 191.600 303.780,191.341 303.600,191.024 303.600 C 190.707 303.600,190.336 303.780,190.200 304.000 M223.600 304.000 C 223.600 304.220,223.960 304.400,224.400 304.400 C 224.840 304.400,225.200 304.220,225.200 304.000 C 225.200 303.780,224.840 303.600,224.400 303.600 C 223.960 303.600,223.600 303.780,223.600 304.000 M196.300 309.100 C 202.515 309.162,212.685 309.162,218.900 309.100 C 225.115 309.038,220.030 308.987,207.600 308.987 C 195.170 308.987,190.085 309.038,196.300 309.100 M183.212 309.584 C 182.888 309.789,182.778 310.101,182.966 310.278 C 183.155 310.455,183.390 310.374,183.489 310.098 C 183.588 309.821,183.833 309.697,184.034 309.821 C 184.235 309.945,184.400 309.857,184.400 309.624 C 184.400 309.105,183.991 309.092,183.212 309.584 M230.800 309.624 C 230.800 309.857,230.965 309.945,231.166 309.821 C 231.367 309.697,231.612 309.821,231.711 310.098 C 231.810 310.374,232.045 310.455,232.234 310.278 C 232.422 310.101,232.312 309.789,231.988 309.584 C 231.209 309.092,230.800 309.105,230.800 309.624 M181.100 312.087 C 180.019 313.439,180.367 318.166,181.467 317.067 C 181.637 316.896,181.602 316.631,181.388 316.478 C 180.827 316.076,180.910 313.095,181.500 312.471 C 181.933 312.014,182.193 311.190,181.900 311.205 C 181.845 311.208,181.485 311.605,181.100 312.087 M233.200 311.571 C 233.200 311.776,233.425 312.181,233.700 312.471 C 234.290 313.095,234.373 316.076,233.812 316.478 C 233.598 316.631,233.563 316.896,233.733 317.067 C 234.639 317.972,235.165 314.212,234.410 312.226 C 234.037 311.245,233.200 310.792,233.200 311.571 M233.067 317.867 C 232.581 318.353,232.790 318.779,233.400 318.545 C 233.730 318.418,234.000 318.154,234.000 317.957 C 234.000 317.538,233.449 317.484,233.067 317.867 M182.400 318.786 C 182.400 318.998,182.748 319.358,183.174 319.586 C 184.346 320.213,184.486 320.086,183.600 319.200 C 182.715 318.315,182.400 318.206,182.400 318.786 M182.697 325.853 C 182.204 326.432,181.554 327.161,181.252 327.472 C 180.951 327.783,180.803 328.137,180.924 328.257 C 181.156 328.489,183.568 326.004,183.588 325.513 C 183.595 325.354,183.870 325.329,184.200 325.455 C 184.530 325.582,184.800 325.486,184.800 325.243 C 184.800 324.437,183.609 324.783,182.697 325.853 M232.000 325.775 C 232.000 326.087,232.444 326.691,232.986 327.118 C 233.529 327.545,233.859 328.008,233.720 328.147 C 233.581 328.286,233.677 328.400,233.933 328.400 C 234.700 328.400,234.470 327.792,233.200 326.463 C 232.488 325.718,232.000 325.438,232.000 325.775 M180.400 330.376 C 180.400 331.269,180.580 332.000,180.800 332.000 C 181.020 332.000,181.200 331.381,181.200 330.624 C 181.200 329.867,181.020 329.136,180.800 329.000 C 180.558 328.851,180.400 329.396,180.400 330.376 M234.267 329.067 C 233.853 329.480,233.953 331.523,234.400 331.800 C 234.642 331.949,234.800 331.404,234.800 330.424 C 234.800 328.766,234.734 328.599,234.267 329.067 M180.800 332.957 C 180.800 333.264,181.070 333.618,181.400 333.745 C 182.071 334.002,182.104 333.936,181.757 333.033 C 181.457 332.251,180.800 332.199,180.800 332.957 M233.600 333.200 C 233.283 333.396,233.156 333.689,233.318 333.852 C 233.481 334.014,233.823 333.937,234.080 333.680 C 234.684 333.076,234.347 332.738,233.600 333.200 M183.390 335.448 C 183.747 335.804,184.159 335.974,184.307 335.826 C 184.456 335.678,184.312 335.389,183.988 335.184 C 183.043 334.587,182.687 334.744,183.390 335.448 M231.212 335.184 C 230.888 335.389,230.744 335.678,230.893 335.826 C 231.041 335.974,231.453 335.804,231.810 335.448 C 232.513 334.744,232.157 334.587,231.212 335.184 M185.600 336.000 C 185.209 336.253,192.834 336.390,207.524 336.394 C 222.439 336.398,229.964 336.265,229.800 336.000 C 229.468 335.463,186.431 335.463,185.600 336.000 M194.998 342.002 C 194.195 342.889,194.460 343.580,195.327 342.860 C 195.628 342.611,195.953 342.487,196.051 342.584 C 196.149 342.682,196.229 342.410,196.229 341.981 C 196.229 340.989,195.910 340.994,194.998 342.002 M219.200 341.904 C 219.200 342.071,219.560 342.432,220.000 342.707 C 220.876 343.254,221.085 342.845,220.320 342.080 C 219.778 341.538,219.200 341.447,219.200 341.904 M193.700 344.223 C 193.120 344.853,193.041 345.600,193.553 345.600 C 193.861 345.600,194.510 343.965,194.284 343.758 C 194.238 343.715,193.975 343.925,193.700 344.223 M221.023 344.500 C 221.360 345.598,221.529 345.804,221.837 345.497 C 222.181 345.152,221.616 343.600,221.146 343.600 C 220.916 343.600,220.864 343.982,221.023 344.500 M193.200 347.229 C 193.200 347.684,193.505 348.359,193.878 348.729 C 194.512 349.357,194.538 349.354,194.278 348.667 C 194.125 348.264,194.000 347.589,194.000 347.167 C 194.000 346.745,193.820 346.400,193.600 346.400 C 193.380 346.400,193.200 346.773,193.200 347.229 M221.311 347.581 C 221.423 348.010,221.309 348.436,221.058 348.526 C 220.806 348.616,220.745 348.845,220.922 349.034 C 221.308 349.446,221.985 348.478,221.994 347.500 C 221.997 347.115,221.799 346.800,221.553 346.800 C 221.307 346.800,221.198 347.151,221.311 347.581 M220.051 349.960 C 219.749 350.151,219.584 350.553,219.684 350.853 C 219.811 351.232,220.012 351.125,220.347 350.499 C 220.879 349.505,220.851 349.454,220.051 349.960 M198.000 351.600 C 197.604 351.856,200.940 351.988,207.800 351.988 C 214.660 351.988,217.996 351.856,217.600 351.600 C 217.257 351.378,213.060 351.212,207.800 351.212 C 202.540 351.212,198.343 351.378,198.000 351.600 " stroke="none" fill="#3a3a3a" fill-rule="evenodd"></path><path id="path1" d="M205.600 76.933 C 205.600 77.117,205.391 77.197,205.136 77.112 C 204.497 76.899,202.666 78.660,202.987 79.179 C 203.130 79.411,203.037 79.600,202.780 79.600 C 202.482 79.600,202.404 79.961,202.564 80.600 C 202.709 81.177,202.643 81.600,202.408 81.600 C 202.139 81.600,202.000 86.359,202.000 95.600 C 202.000 104.841,202.139 109.600,202.408 109.600 C 202.643 109.600,202.709 110.023,202.564 110.600 C 202.413 111.203,202.484 111.600,202.744 111.600 C 202.981 111.600,203.078 111.852,202.960 112.161 C 202.829 112.502,203.226 113.006,203.972 113.447 C 204.647 113.846,205.200 114.292,205.200 114.438 C 205.200 114.747,209.702 114.703,210.000 114.391 C 210.110 114.276,210.681 113.876,211.269 113.502 C 213.046 112.372,213.261 110.127,213.123 94.157 C 213.032 83.531,212.878 79.825,212.522 79.707 C 212.260 79.620,212.130 79.327,212.234 79.056 C 212.442 78.515,210.611 76.723,210.234 77.099 C 210.105 77.228,210.000 77.159,210.000 76.946 C 210.000 76.732,209.010 76.567,207.800 76.579 C 206.591 76.590,205.601 76.750,205.600 76.933 M117.998 113.362 C 117.779 113.581,117.600 113.652,117.600 113.520 C 117.600 113.387,117.041 113.801,116.357 114.440 C 115.608 115.140,115.206 115.839,115.345 116.200 C 115.471 116.530,115.401 116.800,115.187 116.800 C 114.974 116.800,114.800 117.340,114.800 118.000 C 114.800 118.660,114.935 119.200,115.100 119.201 C 115.265 119.201,115.418 119.709,115.439 120.330 C 115.471 121.251,117.410 123.387,126.034 131.996 L 136.591 142.535 139.095 142.616 C 140.473 142.661,141.605 142.585,141.611 142.449 C 141.617 142.312,142.347 141.753,143.233 141.206 C 144.364 140.508,144.789 140.001,144.659 139.506 C 144.558 139.118,144.638 138.800,144.837 138.800 C 145.348 138.800,145.291 136.504,144.773 136.183 C 144.538 136.038,144.436 135.682,144.547 135.393 C 144.659 135.103,144.491 134.767,144.175 134.646 C 143.859 134.524,143.600 134.180,143.600 133.881 C 143.600 133.198,124.013 113.545,123.592 113.805 C 123.422 113.910,123.186 113.740,123.066 113.428 C 122.811 112.763,118.651 112.709,117.998 113.362 M292.400 113.465 C 292.400 113.813,292.169 113.997,291.875 113.884 C 291.104 113.588,271.030 133.781,271.327 134.554 C 271.493 134.988,271.376 135.089,270.914 134.912 C 270.503 134.754,270.368 134.824,270.541 135.104 C 270.691 135.347,270.630 135.658,270.407 135.796 C 269.864 136.131,269.883 138.800,270.427 138.800 C 270.662 138.800,270.755 139.115,270.633 139.500 C 270.480 139.987,270.775 140.407,271.606 140.881 C 272.263 141.256,272.800 141.824,272.800 142.143 C 272.800 142.591,273.344 142.711,275.200 142.668 C 276.520 142.638,277.600 142.464,277.600 142.283 C 277.600 142.101,277.780 142.064,278.000 142.200 C 278.220 142.336,278.400 142.242,278.400 141.990 C 278.400 141.739,278.611 141.604,278.870 141.690 C 279.408 141.869,299.405 122.071,299.047 121.714 C 298.918 121.585,299.122 121.253,299.500 120.977 C 301.301 119.660,299.494 112.911,297.500 113.510 C 297.335 113.559,297.200 113.445,297.200 113.257 C 297.200 113.068,296.120 112.898,294.800 112.879 C 292.884 112.852,292.400 112.970,292.400 113.465 M199.600 131.635 C 199.600 131.773,198.295 132.006,196.700 132.154 C 195.105 132.301,193.742 132.590,193.672 132.795 C 193.601 133.001,193.016 133.063,192.372 132.934 C 191.622 132.784,191.200 132.865,191.200 133.158 C 191.200 133.446,190.830 133.522,190.200 133.364 C 189.558 133.203,189.200 133.282,189.200 133.584 C 189.200 133.872,188.890 133.956,188.400 133.800 C 187.921 133.648,187.600 133.728,187.600 134.000 C 187.600 134.272,187.279 134.352,186.800 134.200 C 186.360 134.060,186.000 134.096,186.000 134.278 C 186.000 134.461,185.055 134.835,183.900 135.109 C 182.745 135.383,181.746 135.767,181.681 135.961 C 181.615 136.156,181.210 136.223,180.781 136.111 C 180.306 135.987,180.000 136.108,180.000 136.420 C 180.000 136.702,179.889 136.822,179.752 136.686 C 179.616 136.550,179.243 136.700,178.924 137.019 C 178.604 137.339,177.990 137.600,177.559 137.600 C 177.128 137.600,176.666 137.885,176.532 138.232 C 176.387 138.612,175.992 138.787,175.545 138.670 C 175.135 138.563,174.800 138.649,174.800 138.861 C 174.800 139.073,174.620 139.136,174.400 139.000 C 174.180 138.864,174.000 138.915,174.000 139.112 C 174.000 139.310,173.280 139.710,172.400 140.000 C 171.520 140.290,170.800 140.784,170.800 141.097 C 170.800 141.410,170.579 141.593,170.309 141.503 C 170.038 141.413,169.464 141.668,169.033 142.070 C 168.602 142.471,168.032 142.800,167.767 142.800 C 167.502 142.800,167.183 143.067,167.058 143.393 C 166.928 143.731,166.565 143.885,166.215 143.750 C 165.819 143.598,165.600 143.743,165.600 144.157 C 165.600 144.511,165.324 144.800,164.987 144.800 C 164.651 144.800,164.276 145.059,164.154 145.375 C 164.033 145.691,163.686 145.854,163.383 145.738 C 163.060 145.614,162.537 146.010,162.116 146.699 C 161.722 147.343,161.201 147.803,160.958 147.721 C 160.715 147.639,160.002 148.253,159.374 149.086 C 158.086 150.794,157.139 151.610,156.735 151.360 C 156.361 151.128,152.800 154.837,152.800 155.459 C 152.800 155.734,152.161 156.446,151.381 157.042 C 150.601 157.637,150.046 158.343,150.149 158.611 C 150.252 158.880,149.901 159.332,149.368 159.617 C 148.836 159.902,148.400 160.421,148.400 160.771 C 148.400 161.121,148.040 161.632,147.600 161.907 C 147.160 162.182,146.800 162.675,146.800 163.003 C 146.800 163.332,146.536 163.600,146.213 163.600 C 145.855 163.600,145.715 163.835,145.855 164.200 C 145.982 164.530,145.886 164.800,145.643 164.800 C 145.399 164.800,145.200 165.045,145.200 165.345 C 145.200 165.645,144.778 166.320,144.262 166.845 C 143.746 167.370,143.001 168.655,142.608 169.700 C 142.214 170.745,141.741 171.600,141.558 171.600 C 141.375 171.600,141.320 171.847,141.436 172.148 C 141.551 172.450,141.374 172.969,141.042 173.301 C 140.710 173.633,140.550 174.016,140.686 174.152 C 140.822 174.289,140.743 174.400,140.510 174.400 C 140.277 174.400,139.974 174.850,139.836 175.400 C 139.698 175.950,139.396 176.400,139.165 176.400 C 138.928 176.400,138.856 176.747,139.000 177.200 C 139.151 177.677,139.072 178.000,138.803 178.000 C 138.556 178.000,138.464 178.180,138.600 178.400 C 138.736 178.620,138.637 178.800,138.381 178.800 C 138.124 178.800,138.016 179.064,138.140 179.387 C 138.264 179.710,138.181 180.088,137.955 180.228 C 137.730 180.367,137.642 180.733,137.760 181.040 C 137.878 181.348,137.801 181.600,137.587 181.600 C 137.374 181.600,137.200 181.960,137.200 182.400 C 137.200 182.840,137.026 183.200,136.813 183.200 C 136.599 183.200,136.529 183.470,136.655 183.800 C 136.782 184.130,136.674 184.400,136.416 184.400 C 136.119 184.400,136.045 184.713,136.216 185.250 C 136.374 185.748,136.291 186.220,136.014 186.391 C 135.755 186.551,135.489 187.409,135.423 188.297 C 135.356 189.185,135.197 190.081,135.069 190.288 C 134.941 190.496,134.713 191.866,134.563 193.333 C 134.413 194.800,134.125 196.000,133.925 196.000 C 133.716 196.000,133.676 197.023,133.832 198.400 C 134.021 200.077,133.967 200.800,133.652 200.800 C 133.341 200.800,133.200 202.301,133.200 205.600 C 133.200 208.769,133.347 210.400,133.632 210.400 C 133.925 210.400,133.974 211.234,133.785 213.000 C 133.619 214.551,133.658 215.600,133.882 215.600 C 134.089 215.600,134.492 217.310,134.779 219.400 C 135.066 221.490,135.433 223.200,135.595 223.200 C 135.757 223.200,135.803 223.650,135.698 224.200 C 135.589 224.770,135.693 225.200,135.941 225.200 C 136.180 225.200,136.271 225.470,136.145 225.800 C 136.017 226.132,136.133 226.400,136.404 226.400 C 136.696 226.400,136.809 226.722,136.684 227.200 C 136.569 227.640,136.638 228.000,136.837 228.000 C 137.037 228.000,137.200 228.437,137.200 228.971 C 137.200 229.506,137.481 230.224,137.826 230.568 C 138.170 230.912,138.347 231.363,138.219 231.569 C 138.091 231.776,138.173 232.060,138.400 232.200 C 138.627 232.340,138.709 232.623,138.583 232.828 C 138.456 233.032,138.520 233.200,138.724 233.200 C 138.929 233.200,139.327 234.055,139.610 235.100 C 139.893 236.145,140.370 237.493,140.670 238.096 C 140.971 238.699,141.235 239.329,141.258 239.496 C 141.280 239.663,141.736 240.205,142.270 240.700 C 142.804 241.195,143.120 241.600,142.972 241.600 C 142.823 241.600,142.903 241.842,143.148 242.137 C 143.393 242.432,143.475 242.792,143.330 242.937 C 143.185 243.082,143.271 243.200,143.521 243.200 C 143.771 243.200,143.871 243.470,143.745 243.800 C 143.599 244.180,143.750 244.400,144.157 244.400 C 144.511 244.400,144.800 244.676,144.800 245.013 C 144.800 245.349,145.069 245.728,145.398 245.854 C 145.726 245.981,145.904 246.232,145.792 246.413 C 145.680 246.594,146.210 247.421,146.969 248.250 C 147.729 249.079,148.266 249.893,148.164 250.059 C 148.061 250.224,148.343 250.555,148.789 250.794 C 149.235 251.033,149.600 251.480,149.600 251.787 C 149.600 252.094,150.140 252.730,150.800 253.200 C 151.460 253.670,152.000 254.302,152.000 254.606 C 152.000 255.293,158.353 261.781,158.693 261.441 C 159.030 261.103,160.800 262.808,160.800 263.470 C 160.800 263.761,160.991 264.000,161.224 264.000 C 161.457 264.000,161.518 264.225,161.359 264.500 C 161.201 264.775,161.213 264.873,161.385 264.717 C 161.794 264.349,164.400 266.338,164.400 267.018 C 164.400 267.306,164.865 267.908,165.434 268.355 C 166.002 268.802,166.351 269.355,166.210 269.584 C 166.068 269.813,166.148 270.000,166.386 270.000 C 166.625 270.000,166.991 270.450,167.200 271.000 C 167.409 271.550,167.765 272.000,167.990 272.000 C 168.216 272.000,168.400 272.270,168.400 272.600 C 168.400 272.930,168.580 273.200,168.800 273.200 C 169.020 273.200,169.200 273.470,169.200 273.800 C 169.200 274.130,169.545 274.745,169.967 275.167 C 170.388 275.588,170.628 276.038,170.500 276.167 C 170.372 276.295,170.496 276.400,170.776 276.400 C 171.065 276.400,171.186 276.660,171.055 277.000 C 170.929 277.330,170.983 277.600,171.175 277.600 C 171.368 277.600,171.424 277.988,171.300 278.463 C 171.157 279.009,171.228 279.230,171.494 279.065 C 171.729 278.920,172.025 279.246,172.165 279.803 C 172.303 280.351,172.575 280.800,172.770 280.800 C 172.965 280.800,173.031 281.160,172.916 281.600 C 172.801 282.040,172.902 282.400,173.141 282.400 C 173.380 282.400,173.471 282.670,173.345 283.000 C 173.218 283.330,173.326 283.600,173.584 283.600 C 173.872 283.600,173.956 283.910,173.800 284.400 C 173.660 284.840,173.727 285.200,173.949 285.200 C 174.170 285.200,174.473 286.012,174.622 287.005 C 174.771 287.998,175.035 288.898,175.209 289.005 C 175.383 289.113,175.431 289.561,175.316 290.000 C 175.194 290.467,175.304 290.800,175.580 290.800 C 175.872 290.800,175.956 291.107,175.800 291.600 C 175.660 292.040,175.721 292.400,175.936 292.400 C 176.150 292.400,176.231 292.760,176.116 293.200 C 175.970 293.756,176.104 294.000,176.553 294.000 C 176.909 294.000,177.200 294.270,177.200 294.600 C 177.200 294.930,177.374 295.200,177.587 295.200 C 177.801 295.200,177.871 295.470,177.745 295.800 C 177.602 296.172,177.747 296.400,178.124 296.400 C 178.460 296.400,179.064 297.075,179.467 297.900 C 179.870 298.725,180.470 299.400,180.800 299.400 C 181.130 299.400,181.718 299.871,182.106 300.447 C 182.565 301.128,183.579 301.735,185.006 302.184 C 186.213 302.564,187.200 303.050,187.200 303.264 C 187.200 303.479,187.560 303.540,188.000 303.400 C 188.491 303.244,188.800 303.328,188.800 303.618 C 188.800 303.940,189.243 304.006,190.200 303.826 C 191.075 303.662,191.600 303.721,191.600 303.982 C 191.600 304.266,196.738 304.400,207.600 304.400 C 219.068 304.400,223.600 304.274,223.600 303.955 C 223.600 303.664,224.082 303.601,225.000 303.774 C 225.919 303.946,226.400 303.883,226.400 303.591 C 226.400 303.328,226.727 303.250,227.200 303.400 C 227.640 303.540,228.000 303.501,228.000 303.314 C 228.000 303.127,228.810 302.735,229.800 302.443 C 230.895 302.120,231.600 301.677,231.600 301.313 C 231.600 300.961,231.833 300.804,232.167 300.932 C 232.479 301.052,232.833 300.891,232.954 300.575 C 233.076 300.259,233.421 300.000,233.721 300.000 C 234.336 300.000,236.649 297.571,236.493 297.089 C 236.438 296.918,236.664 296.673,236.996 296.546 C 237.328 296.419,237.600 296.104,237.600 295.846 C 237.600 295.589,237.978 295.055,238.439 294.659 C 238.900 294.264,239.198 293.634,239.099 293.259 C 239.001 292.883,239.139 292.373,239.405 292.125 C 239.671 291.876,240.012 290.576,240.164 289.236 C 240.316 287.896,240.594 286.800,240.782 286.800 C 240.971 286.800,241.031 286.440,240.916 286.000 C 240.794 285.533,240.904 285.200,241.180 285.200 C 241.472 285.200,241.556 284.893,241.400 284.400 C 241.250 283.928,241.328 283.600,241.591 283.600 C 241.835 283.600,242.000 283.375,241.956 283.100 C 241.913 282.825,242.175 281.931,242.539 281.113 C 242.902 280.295,243.200 279.440,243.200 279.213 C 243.200 278.986,243.391 278.800,243.624 278.800 C 243.857 278.800,243.936 278.620,243.800 278.400 C 243.664 278.180,243.725 278.000,243.936 278.000 C 244.147 278.000,244.643 277.100,245.039 276.000 C 245.434 274.900,245.913 274.000,246.103 274.000 C 246.292 274.000,246.348 273.839,246.226 273.642 C 246.104 273.445,246.274 273.181,246.602 273.054 C 246.931 272.928,247.200 272.562,247.200 272.240 C 247.200 271.917,247.573 271.536,248.029 271.391 C 248.499 271.242,248.770 270.898,248.654 270.597 C 248.542 270.305,248.728 269.960,249.067 269.830 C 249.406 269.700,249.591 269.354,249.479 269.061 C 249.362 268.758,249.778 268.231,250.444 267.837 C 251.088 267.457,251.499 266.960,251.358 266.732 C 251.096 266.308,256.301 260.968,256.643 261.310 C 256.953 261.619,262.800 255.694,262.800 255.070 C 262.800 254.754,263.430 254.014,264.200 253.427 C 264.970 252.840,265.600 252.093,265.600 251.767 C 265.600 251.441,265.884 251.066,266.231 250.933 C 266.577 250.800,267.023 250.265,267.221 249.745 C 267.418 249.225,267.874 248.800,268.233 248.800 C 268.656 248.800,268.803 248.583,268.650 248.185 C 268.513 247.829,268.674 247.470,269.030 247.333 C 269.369 247.203,269.551 246.850,269.436 246.548 C 269.320 246.247,269.403 246.000,269.621 246.000 C 269.839 246.000,270.235 245.505,270.500 244.900 C 270.766 244.295,271.198 243.664,271.462 243.497 C 271.725 243.330,272.147 242.565,272.401 241.797 C 272.655 241.029,273.022 240.400,273.218 240.400 C 273.415 240.400,273.471 240.130,273.345 239.800 C 273.218 239.470,273.324 239.200,273.581 239.200 C 273.837 239.200,273.936 239.020,273.800 238.800 C 273.664 238.580,273.743 238.400,273.976 238.400 C 274.209 238.400,274.369 238.265,274.330 238.100 C 274.214 237.603,275.302 235.600,275.688 235.600 C 275.885 235.600,275.944 235.432,275.817 235.228 C 275.691 235.023,275.782 234.735,276.021 234.587 C 276.259 234.440,276.358 234.067,276.240 233.760 C 276.122 233.452,276.210 233.200,276.436 233.200 C 276.662 233.200,276.744 233.032,276.617 232.828 C 276.491 232.623,276.582 232.335,276.821 232.187 C 277.059 232.040,277.158 231.667,277.040 231.360 C 276.922 231.052,276.979 230.800,277.168 230.800 C 277.357 230.800,277.629 230.170,277.774 229.400 C 277.918 228.630,278.220 228.000,278.445 228.000 C 278.672 228.000,278.741 227.644,278.600 227.200 C 278.444 226.710,278.528 226.400,278.816 226.400 C 279.074 226.400,279.182 226.130,279.055 225.800 C 278.929 225.470,278.981 225.200,279.171 225.200 C 279.361 225.200,279.745 223.670,280.023 221.800 C 280.301 219.930,280.703 218.400,280.916 218.400 C 281.143 218.400,281.197 217.740,281.046 216.800 C 280.872 215.711,280.938 215.200,281.251 215.200 C 281.570 215.200,281.642 214.526,281.485 213.005 C 281.361 211.798,281.426 210.708,281.629 210.582 C 282.135 210.269,282.113 200.800,281.606 200.800 C 281.364 200.800,281.309 199.878,281.463 198.400 C 281.648 196.631,281.585 196.000,281.222 196.000 C 280.869 196.000,280.806 195.546,281.000 194.400 C 281.150 193.510,281.109 192.800,280.907 192.800 C 280.708 192.800,280.310 191.360,280.024 189.600 C 279.739 187.840,279.343 186.400,279.145 186.400 C 278.947 186.400,278.898 185.950,279.036 185.400 C 279.187 184.797,279.116 184.400,278.856 184.400 C 278.619 184.400,278.529 184.130,278.655 183.800 C 278.782 183.470,278.702 183.200,278.478 183.200 C 278.254 183.200,277.948 182.476,277.799 181.592 C 277.649 180.708,277.282 179.739,276.983 179.440 C 276.683 179.140,276.545 178.788,276.676 178.657 C 276.807 178.526,276.710 178.173,276.460 177.873 C 276.211 177.572,276.125 177.208,276.270 177.063 C 276.415 176.918,276.315 176.800,276.049 176.800 C 275.783 176.800,275.604 176.575,275.652 176.300 C 275.763 175.656,274.771 173.600,274.348 173.600 C 274.171 173.600,274.129 173.330,274.255 173.000 C 274.382 172.670,274.276 172.400,274.019 172.400 C 273.763 172.400,273.664 172.220,273.800 172.000 C 273.936 171.780,273.871 171.600,273.656 171.600 C 273.440 171.600,272.961 170.687,272.591 169.571 C 272.220 168.456,271.667 167.447,271.361 167.330 C 271.055 167.212,270.904 166.955,271.026 166.758 C 271.148 166.561,271.052 166.400,270.814 166.400 C 270.575 166.400,270.209 165.950,270.000 165.400 C 269.791 164.850,269.425 164.400,269.186 164.400 C 268.948 164.400,268.865 164.219,269.002 163.997 C 269.139 163.776,268.969 163.486,268.625 163.354 C 268.281 163.222,268.000 162.865,268.000 162.561 C 268.000 162.256,267.658 161.793,267.240 161.532 C 266.822 161.271,266.566 160.833,266.671 160.559 C 266.776 160.285,266.488 159.861,266.031 159.617 C 265.574 159.372,265.200 158.946,265.200 158.671 C 265.200 158.395,264.387 157.490,263.393 156.659 C 262.398 155.828,261.682 154.991,261.800 154.800 C 262.079 154.349,258.055 150.319,257.604 150.597 C 257.416 150.714,256.596 149.997,255.782 149.005 C 254.969 148.012,254.050 147.200,253.739 147.200 C 253.429 147.200,253.076 146.941,252.954 146.625 C 252.833 146.309,252.495 146.142,252.203 146.254 C 251.902 146.370,251.558 146.099,251.409 145.629 C 251.264 145.173,250.819 144.800,250.420 144.800 C 250.015 144.800,249.595 144.423,249.471 143.948 C 249.322 143.379,249.041 143.176,248.624 143.335 C 248.281 143.467,248.000 143.401,248.000 143.187 C 248.000 142.974,247.730 142.800,247.400 142.800 C 247.070 142.800,246.800 142.620,246.800 142.400 C 246.800 142.180,246.530 142.000,246.200 142.000 C 245.870 142.000,245.600 141.826,245.600 141.613 C 245.600 141.399,245.330 141.329,245.000 141.455 C 244.637 141.595,244.400 141.457,244.400 141.107 C 244.400 140.786,243.686 140.292,242.800 140.000 C 241.920 139.710,241.200 139.310,241.200 139.112 C 241.200 138.915,241.020 138.864,240.800 139.000 C 240.580 139.136,240.400 139.027,240.400 138.757 C 240.400 138.487,240.282 138.385,240.137 138.530 C 239.992 138.675,239.632 138.593,239.337 138.348 C 239.042 138.103,238.800 138.027,238.800 138.180 C 238.800 138.332,238.536 138.219,238.214 137.929 C 236.693 136.557,236.319 136.346,235.779 136.553 C 235.461 136.675,235.200 136.581,235.200 136.345 C 235.200 136.108,234.917 136.023,234.570 136.156 C 234.224 136.289,233.697 136.154,233.399 135.857 C 233.102 135.559,231.765 135.101,230.429 134.838 C 229.093 134.575,228.000 134.177,228.000 133.953 C 228.000 133.728,227.642 133.660,227.200 133.800 C 226.705 133.957,226.400 133.872,226.400 133.577 C 226.400 133.263,226.000 133.180,225.228 133.334 C 224.584 133.463,223.999 133.401,223.928 133.195 C 223.858 132.989,222.000 132.600,219.800 132.329 C 217.600 132.059,215.710 131.735,215.600 131.611 C 215.325 131.300,199.600 131.324,199.600 131.635 M214.400 142.552 C 214.400 142.746,215.210 142.813,216.200 142.701 C 217.190 142.590,218.000 142.633,218.000 142.797 C 218.000 142.962,219.080 143.219,220.400 143.368 C 221.720 143.518,222.800 143.823,222.800 144.047 C 222.800 144.272,223.158 144.340,223.600 144.200 C 224.093 144.044,224.400 144.128,224.400 144.420 C 224.400 144.696,224.733 144.806,225.200 144.684 C 225.640 144.569,226.000 144.658,226.000 144.881 C 226.000 145.114,226.425 145.180,227.000 145.036 C 227.570 144.893,228.000 144.958,228.000 145.187 C 228.000 145.408,228.810 145.792,229.800 146.042 C 230.790 146.291,231.600 146.648,231.600 146.835 C 231.600 147.022,231.870 147.071,232.200 146.945 C 232.530 146.818,232.800 146.924,232.800 147.181 C 232.800 147.437,232.980 147.536,233.200 147.400 C 233.420 147.264,233.600 147.319,233.600 147.522 C 233.600 147.725,234.410 148.201,235.400 148.579 C 236.390 148.957,237.200 149.402,237.200 149.569 C 237.200 149.736,237.920 150.110,238.800 150.400 C 239.686 150.692,240.400 151.186,240.400 151.507 C 240.400 151.842,240.639 151.994,240.967 151.868 C 241.279 151.748,241.633 151.909,241.754 152.225 C 241.876 152.541,242.251 152.800,242.587 152.800 C 242.924 152.800,243.200 152.980,243.200 153.200 C 243.200 153.420,243.560 153.600,244.000 153.600 C 244.468 153.600,244.800 153.867,244.800 154.243 C 244.800 154.644,245.021 154.801,245.388 154.660 C 245.757 154.519,246.227 154.861,246.652 155.580 C 247.024 156.210,247.551 156.640,247.823 156.536 C 248.095 156.431,248.781 156.954,249.348 157.696 C 250.861 159.680,253.193 162.056,254.900 163.354 C 255.725 163.982,256.400 164.739,256.400 165.038 C 256.400 165.337,256.859 165.882,257.420 166.250 C 257.981 166.618,258.356 167.139,258.252 167.409 C 258.149 167.678,258.485 168.124,259.000 168.400 C 259.533 168.685,259.845 169.137,259.725 169.451 C 259.606 169.761,259.767 170.000,260.097 170.000 C 260.417 170.000,261.013 170.810,261.422 171.800 C 261.830 172.790,262.301 173.600,262.469 173.600 C 262.637 173.600,262.684 173.837,262.573 174.126 C 262.462 174.415,262.828 175.145,263.386 175.747 C 263.944 176.349,264.400 177.102,264.400 177.421 C 264.400 177.739,264.591 178.000,264.824 178.000 C 265.057 178.000,265.136 178.180,265.000 178.400 C 264.864 178.620,264.956 178.800,265.203 178.800 C 265.472 178.800,265.551 179.123,265.400 179.600 C 265.240 180.105,265.328 180.400,265.640 180.400 C 265.911 180.400,266.022 180.511,265.886 180.648 C 265.750 180.784,265.900 181.157,266.219 181.476 C 266.539 181.796,266.800 182.404,266.800 182.829 C 266.800 183.253,266.974 183.600,267.187 183.600 C 267.401 183.600,267.478 183.852,267.360 184.160 C 267.242 184.467,267.330 184.833,267.555 184.972 C 267.781 185.112,267.864 185.490,267.740 185.813 C 267.616 186.136,267.726 186.400,267.984 186.400 C 268.281 186.400,268.355 186.713,268.184 187.250 C 268.015 187.782,268.066 188.006,268.320 187.850 C 268.561 187.700,268.836 188.406,269.000 189.600 C 269.151 190.700,269.434 191.600,269.628 191.600 C 269.821 191.600,269.872 192.140,269.740 192.800 C 269.583 193.586,269.661 194.000,269.968 194.000 C 270.286 194.000,270.352 194.448,270.174 195.400 C 270.006 196.294,270.066 196.800,270.340 196.800 C 270.627 196.800,270.689 197.664,270.527 199.400 C 270.356 201.227,270.420 202.000,270.742 202.000 C 271.054 202.000,271.200 203.213,271.200 205.800 C 271.200 208.356,271.052 209.600,270.748 209.600 C 270.433 209.600,270.379 210.323,270.568 212.000 C 270.763 213.725,270.708 214.400,270.370 214.400 C 270.056 214.400,269.984 214.818,270.151 215.657 C 270.295 216.375,270.212 217.145,269.957 217.452 C 269.711 217.748,269.613 218.256,269.738 218.582 C 269.863 218.908,269.803 219.274,269.606 219.397 C 269.408 219.519,269.125 220.424,268.978 221.409 C 268.830 222.394,268.546 223.200,268.347 223.200 C 268.148 223.200,268.098 223.650,268.236 224.200 C 268.396 224.839,268.318 225.200,268.020 225.200 C 267.763 225.200,267.665 225.381,267.802 225.603 C 267.939 225.825,267.756 226.302,267.394 226.663 C 267.033 227.024,266.825 227.652,266.931 228.060 C 267.038 228.467,266.962 228.800,266.763 228.800 C 266.563 228.800,266.400 229.147,266.400 229.571 C 266.400 229.996,266.139 230.604,265.819 230.924 C 265.500 231.243,265.350 231.616,265.486 231.752 C 265.622 231.889,265.504 232.000,265.224 232.000 C 264.935 232.000,264.814 232.260,264.945 232.600 C 265.071 232.930,265.015 233.200,264.818 233.200 C 264.622 233.200,264.254 233.830,264.000 234.600 C 263.746 235.370,263.361 236.000,263.145 236.000 C 262.929 236.000,262.857 236.169,262.985 236.375 C 263.112 236.582,262.984 236.897,262.700 237.075 C 262.416 237.254,261.966 237.895,261.700 238.500 C 261.435 239.105,261.039 239.600,260.821 239.600 C 260.603 239.600,260.520 239.847,260.636 240.148 C 260.751 240.450,260.554 240.809,260.198 240.946 C 259.841 241.082,259.662 241.377,259.800 241.600 C 259.938 241.823,259.769 242.114,259.425 242.246 C 259.081 242.378,258.800 242.732,258.800 243.034 C 258.800 243.335,258.341 243.882,257.780 244.250 C 257.216 244.619,256.853 245.160,256.967 245.459 C 257.082 245.757,257.016 246.000,256.821 246.000 C 256.160 246.000,253.304 248.997,253.486 249.500 C 253.602 249.820,253.439 249.913,253.033 249.757 C 252.576 249.582,252.400 249.754,252.400 250.378 C 252.400 250.979,251.993 251.411,251.059 251.801 C 250.321 252.110,249.435 252.775,249.090 253.281 C 248.107 254.723,245.546 257.328,243.881 258.581 C 243.031 259.221,242.451 259.955,242.564 260.250 C 242.676 260.543,242.260 261.074,241.620 261.452 C 240.990 261.824,240.558 262.346,240.660 262.613 C 240.762 262.879,240.554 263.209,240.198 263.346 C 239.841 263.482,239.661 263.775,239.797 263.995 C 239.934 264.216,239.578 264.609,239.007 264.870 C 238.436 265.130,238.055 265.566,238.159 265.838 C 238.264 266.111,238.101 266.429,237.797 266.546 C 237.493 266.662,237.026 267.487,236.759 268.379 C 236.480 269.311,236.025 270.000,235.690 270.000 C 235.298 270.000,235.177 270.270,235.322 270.824 C 235.450 271.311,235.320 271.733,235.005 271.853 C 234.712 271.966,234.363 272.495,234.228 273.029 C 234.094 273.563,233.796 274.000,233.565 274.000 C 233.328 274.000,233.256 274.347,233.400 274.800 C 233.551 275.277,233.472 275.600,233.203 275.600 C 232.956 275.600,232.864 275.780,233.000 276.000 C 233.136 276.220,233.036 276.400,232.777 276.400 C 232.504 276.400,232.394 276.735,232.516 277.200 C 232.631 277.640,232.543 278.000,232.320 278.000 C 232.097 278.000,232.018 278.270,232.145 278.600 C 232.271 278.930,232.201 279.200,231.987 279.200 C 231.774 279.200,231.600 279.470,231.600 279.800 C 231.600 280.130,231.408 280.400,231.173 280.400 C 230.928 280.400,230.854 280.741,231.000 281.200 C 231.156 281.693,231.072 282.000,230.780 282.000 C 230.504 282.000,230.394 282.333,230.516 282.800 C 230.631 283.240,230.542 283.600,230.319 283.600 C 230.086 283.600,230.020 284.025,230.164 284.600 C 230.317 285.209,230.245 285.600,229.979 285.600 C 229.739 285.600,229.578 286.005,229.620 286.500 C 229.724 287.710,228.747 290.000,228.126 290.000 C 227.852 290.000,227.428 290.374,227.183 290.832 C 226.938 291.289,226.212 291.847,225.569 292.071 C 224.926 292.295,224.400 292.624,224.400 292.802 C 224.400 292.980,224.040 293.031,223.600 292.916 C 223.153 292.799,222.800 292.904,222.800 293.153 C 222.800 293.474,218.525 293.600,207.600 293.600 C 196.675 293.600,192.400 293.474,192.400 293.153 C 192.400 292.908,192.080 292.790,191.688 292.893 C 191.297 292.995,190.738 292.824,190.447 292.512 C 190.156 292.201,189.695 292.031,189.423 292.136 C 189.151 292.240,188.619 291.802,188.242 291.163 C 187.864 290.523,187.280 290.000,186.944 290.000 C 186.608 290.000,186.408 289.777,186.499 289.504 C 186.590 289.231,186.447 288.790,186.181 288.524 C 185.915 288.258,185.572 287.041,185.420 285.820 C 185.267 284.599,185.000 283.600,184.827 283.600 C 184.653 283.600,184.597 283.150,184.702 282.600 C 184.811 282.030,184.707 281.600,184.459 281.600 C 184.220 281.600,184.129 281.330,184.255 281.000 C 184.382 280.670,184.320 280.400,184.118 280.400 C 183.916 280.400,183.521 279.500,183.239 278.400 C 182.957 277.300,182.552 276.400,182.339 276.400 C 182.127 276.400,182.064 276.220,182.200 276.000 C 182.336 275.780,182.236 275.600,181.977 275.600 C 181.704 275.600,181.594 275.265,181.716 274.800 C 181.831 274.360,181.751 274.000,181.539 274.000 C 181.327 274.000,181.264 273.820,181.400 273.600 C 181.536 273.380,181.460 273.200,181.231 273.200 C 181.002 273.200,180.702 272.750,180.564 272.200 C 180.426 271.650,180.191 271.200,180.042 271.200 C 179.892 271.200,179.740 270.798,179.703 270.306 C 179.666 269.814,179.458 269.353,179.240 269.280 C 179.023 269.208,178.944 268.890,179.065 268.574 C 179.200 268.222,179.037 268.000,178.643 268.000 C 178.289 268.000,178.000 267.724,178.000 267.387 C 178.000 267.051,177.731 266.672,177.402 266.546 C 177.074 266.419,176.904 266.155,177.026 265.958 C 177.148 265.761,177.037 265.600,176.781 265.600 C 176.524 265.600,176.409 265.353,176.525 265.051 C 176.645 264.737,176.333 264.285,175.800 264.000 C 175.285 263.724,174.949 263.278,175.052 263.009 C 175.156 262.739,174.781 262.218,174.220 261.850 C 173.659 261.482,173.200 261.033,173.200 260.850 C 173.200 260.368,164.486 251.600,164.006 251.600 C 163.783 251.600,163.600 251.350,163.600 251.044 C 163.600 250.739,163.285 250.514,162.900 250.544 C 162.482 250.578,162.198 250.320,162.196 249.904 C 162.193 249.521,161.338 248.425,160.296 247.468 C 159.253 246.510,158.400 245.523,158.400 245.273 C 158.400 245.023,157.941 244.518,157.380 244.150 C 156.819 243.782,156.447 243.253,156.555 242.974 C 156.662 242.695,156.491 242.367,156.175 242.246 C 155.859 242.124,155.600 241.749,155.600 241.413 C 155.600 241.076,155.319 240.800,154.976 240.800 C 154.633 240.800,154.469 240.611,154.612 240.381 C 154.754 240.150,154.405 239.496,153.835 238.926 C 153.266 238.357,152.800 237.645,152.800 237.345 C 152.800 237.045,152.609 236.800,152.376 236.800 C 152.143 236.800,152.064 236.620,152.200 236.400 C 152.336 236.180,152.275 236.000,152.064 236.000 C 151.853 236.000,151.357 235.100,150.961 234.000 C 150.566 232.900,150.087 232.000,149.897 232.000 C 149.708 232.000,149.655 231.835,149.779 231.634 C 149.903 231.433,149.819 231.206,149.592 231.131 C 149.364 231.055,148.918 230.006,148.600 228.800 C 148.282 227.594,147.847 226.549,147.633 226.478 C 147.420 226.407,147.344 226.090,147.465 225.774 C 147.586 225.458,147.467 225.200,147.199 225.200 C 146.881 225.200,146.800 224.856,146.964 224.200 C 147.117 223.593,147.044 223.200,146.781 223.200 C 146.528 223.200,146.452 222.865,146.600 222.400 C 146.740 221.960,146.679 221.600,146.464 221.600 C 146.250 221.600,145.951 220.700,145.800 219.600 C 145.649 218.501,145.379 217.511,145.201 217.400 C 145.022 217.290,144.973 216.480,145.091 215.600 C 145.224 214.605,145.145 214.000,144.882 214.000 C 144.607 214.000,144.538 213.225,144.685 211.800 C 144.841 210.287,144.769 209.600,144.456 209.600 C 144.145 209.600,144.000 208.327,144.000 205.600 C 144.000 202.875,144.145 201.600,144.456 201.600 C 144.770 201.600,144.844 200.856,144.693 199.200 C 144.555 197.675,144.627 196.800,144.889 196.800 C 145.147 196.800,145.206 196.199,145.046 195.200 C 144.900 194.287,144.952 193.600,145.166 193.600 C 145.373 193.600,145.666 192.610,145.817 191.400 C 145.968 190.190,146.246 189.200,146.434 189.200 C 146.621 189.200,146.671 188.930,146.545 188.600 C 146.418 188.270,146.526 188.000,146.784 188.000 C 147.072 188.000,147.155 187.690,147.000 187.199 C 146.849 186.723,146.985 186.158,147.336 185.807 C 147.661 185.482,148.050 184.489,148.200 183.600 C 148.350 182.711,148.726 181.731,149.035 181.422 C 149.345 181.112,149.489 180.576,149.356 180.230 C 149.221 179.879,149.321 179.600,149.581 179.600 C 149.837 179.600,149.936 179.420,149.800 179.200 C 149.664 178.980,149.729 178.800,149.945 178.800 C 150.161 178.800,150.546 178.170,150.800 177.400 C 151.054 176.630,151.422 176.000,151.618 176.000 C 151.815 176.000,151.871 175.730,151.745 175.400 C 151.618 175.070,151.724 174.800,151.981 174.800 C 152.237 174.800,152.336 174.620,152.200 174.400 C 152.064 174.180,152.153 174.000,152.397 174.000 C 152.641 174.000,153.104 173.370,153.426 172.600 C 153.748 171.830,154.199 171.200,154.429 171.200 C 154.659 171.200,154.742 171.029,154.612 170.820 C 154.483 170.611,154.743 170.245,155.189 170.006 C 155.635 169.767,156.000 169.327,156.000 169.029 C 156.000 168.730,156.281 168.378,156.625 168.246 C 156.969 168.114,157.134 167.817,156.992 167.587 C 156.849 167.356,157.198 166.802,157.766 166.355 C 158.335 165.908,158.800 165.306,158.800 165.018 C 158.800 164.731,159.475 163.983,160.300 163.358 C 162.034 162.043,165.414 158.623,166.307 157.280 C 166.643 156.774,167.139 156.444,167.409 156.548 C 167.678 156.651,168.124 156.315,168.400 155.800 C 168.676 155.285,169.134 154.953,169.420 155.063 C 169.705 155.172,170.139 154.888,170.383 154.431 C 170.628 153.974,171.073 153.600,171.371 153.600 C 171.670 153.600,172.018 153.330,172.145 153.000 C 172.271 152.670,172.651 152.400,172.987 152.400 C 173.324 152.400,173.600 152.226,173.600 152.013 C 173.600 151.799,173.870 151.729,174.200 151.855 C 174.563 151.995,174.800 151.857,174.800 151.507 C 174.800 151.186,175.515 150.692,176.406 150.398 C 177.289 150.107,178.211 149.628,178.455 149.334 C 178.698 149.040,179.121 148.800,179.393 148.800 C 179.666 148.800,180.556 148.347,181.372 147.793 C 182.188 147.240,183.023 146.890,183.228 147.017 C 183.432 147.144,183.600 147.079,183.600 146.873 C 183.600 146.667,184.860 146.171,186.400 145.772 C 187.940 145.373,189.200 144.888,189.200 144.696 C 189.200 144.504,189.560 144.460,190.000 144.600 C 190.493 144.756,190.800 144.672,190.800 144.380 C 190.800 144.104,191.133 143.994,191.600 144.116 C 192.039 144.231,192.494 144.172,192.609 143.986 C 192.724 143.799,193.669 143.532,194.709 143.393 C 195.749 143.254,196.870 143.032,197.200 142.901 C 197.530 142.769,198.565 142.709,199.500 142.767 C 200.435 142.825,201.200 142.721,201.200 142.536 C 201.200 142.351,204.170 142.200,207.800 142.200 C 211.430 142.200,214.400 142.358,214.400 142.552 M206.800 150.345 C 206.800 150.534,206.352 150.603,205.805 150.499 C 205.144 150.373,204.730 150.517,204.572 150.929 C 204.430 151.299,204.077 151.451,203.697 151.305 C 203.234 151.128,203.128 151.234,203.305 151.697 C 203.451 152.077,203.300 152.430,202.932 152.571 C 202.492 152.739,202.390 153.105,202.575 153.842 C 202.722 154.430,202.633 155.119,202.368 155.438 C 202.024 155.854,202.021 156.000,202.359 156.000 C 202.646 156.000,202.722 156.371,202.564 157.000 C 202.410 157.616,202.483 158.000,202.757 158.000 C 203.000 158.000,203.155 158.158,203.100 158.352 C 202.454 160.623,208.979 161.701,211.225 159.694 C 214.193 157.042,212.425 149.705,209.024 150.558 C 208.488 150.693,207.937 150.622,207.801 150.401 C 207.497 149.910,206.800 149.871,206.800 150.345 M228.800 156.024 C 228.800 156.257,228.620 156.336,228.400 156.200 C 228.180 156.064,228.000 156.143,228.000 156.376 C 228.000 156.609,227.726 156.800,227.390 156.800 C 227.055 156.800,226.609 157.250,226.400 157.800 C 226.191 158.350,225.832 158.800,225.602 158.800 C 225.352 158.800,225.290 159.218,225.447 159.843 C 225.620 160.533,225.521 161.004,225.154 161.237 C 224.717 161.514,224.711 161.589,225.127 161.594 C 225.471 161.598,225.566 161.877,225.400 162.400 C 225.256 162.853,225.328 163.200,225.565 163.200 C 225.796 163.200,226.101 163.663,226.243 164.229 C 226.387 164.805,226.931 165.422,227.475 165.628 C 228.010 165.832,228.337 166.179,228.200 166.399 C 228.064 166.620,228.313 166.800,228.753 166.800 C 229.193 166.800,229.672 166.992,229.817 167.227 C 229.962 167.462,230.318 167.564,230.607 167.453 C 230.897 167.341,231.233 167.509,231.354 167.825 C 231.476 168.141,231.851 168.400,232.187 168.400 C 232.524 168.400,232.800 168.689,232.800 169.043 C 232.800 169.457,233.019 169.602,233.415 169.450 C 233.765 169.315,234.128 169.469,234.258 169.807 C 234.383 170.133,234.647 170.400,234.845 170.400 C 235.329 170.400,242.624 177.723,242.503 178.088 C 242.451 178.246,242.766 178.568,243.204 178.802 C 243.642 179.036,244.000 179.497,244.000 179.827 C 244.000 180.156,244.259 180.524,244.575 180.646 C 244.891 180.767,245.052 181.121,244.932 181.433 C 244.796 181.786,244.973 182.000,245.400 182.000 C 245.831 182.000,246.004 182.213,245.865 182.574 C 245.744 182.890,245.790 183.205,245.966 183.274 C 246.339 183.420,248.155 187.254,248.062 187.700 C 248.028 187.865,248.177 188.000,248.394 188.000 C 248.611 188.000,248.992 188.810,249.242 189.800 C 249.491 190.790,249.837 191.600,250.010 191.600 C 250.183 191.600,250.231 191.960,250.116 192.400 C 249.994 192.867,250.104 193.200,250.380 193.200 C 250.672 193.200,250.756 193.507,250.600 194.000 C 250.460 194.440,250.527 194.800,250.749 194.800 C 250.970 194.800,251.276 196.060,251.427 197.600 C 251.579 199.140,251.821 200.400,251.965 200.400 C 252.109 200.400,252.155 201.658,252.068 203.195 C 251.981 204.732,252.049 206.307,252.219 206.695 C 252.388 207.083,252.498 207.535,252.464 207.700 C 252.429 207.865,252.610 208.000,252.867 208.000 C 253.123 208.000,253.232 208.101,253.109 208.225 C 252.985 208.348,253.332 208.933,253.881 209.525 C 254.982 210.714,259.941 211.176,260.293 210.122 C 260.380 209.860,260.740 209.755,261.091 209.890 C 261.550 210.067,261.639 209.986,261.405 209.607 C 261.195 209.269,261.352 208.878,261.839 208.523 C 262.652 207.929,263.294 199.200,262.525 199.200 C 262.335 199.200,262.248 198.480,262.331 197.600 C 262.424 196.627,262.315 196.000,262.052 196.000 C 261.785 196.000,261.712 195.541,261.860 194.800 C 262.015 194.026,261.938 193.600,261.642 193.600 C 261.354 193.600,261.278 193.230,261.436 192.600 C 261.600 191.944,261.519 191.600,261.200 191.600 C 260.881 191.600,260.800 191.256,260.964 190.600 C 261.103 190.046,261.041 189.600,260.826 189.600 C 260.612 189.600,260.318 188.970,260.174 188.200 C 260.029 187.430,259.768 186.800,259.593 186.800 C 259.418 186.800,259.363 186.461,259.472 186.048 C 259.580 185.634,259.410 185.054,259.095 184.760 C 258.779 184.465,258.605 183.903,258.707 183.512 C 258.810 183.120,258.707 182.800,258.480 182.800 C 258.252 182.800,257.757 181.990,257.379 181.000 C 257.001 180.010,256.541 179.200,256.358 179.200 C 256.175 179.200,256.129 178.930,256.255 178.600 C 256.398 178.228,256.253 178.000,255.875 178.000 C 255.521 178.000,255.153 177.495,255.000 176.800 C 254.847 176.105,254.479 175.600,254.125 175.600 C 253.762 175.600,253.603 175.370,253.732 175.033 C 253.852 174.721,253.691 174.367,253.375 174.246 C 253.059 174.124,252.800 173.756,252.800 173.427 C 252.800 173.097,252.447 172.639,252.015 172.408 C 251.583 172.177,251.323 171.744,251.437 171.447 C 251.562 171.121,251.069 170.566,250.199 170.052 C 249.404 169.583,248.868 169.014,249.008 168.787 C 249.295 168.323,244.943 164.000,244.189 164.000 C 243.922 164.000,243.285 163.389,242.773 162.643 C 242.262 161.896,241.632 161.366,241.373 161.466 C 241.115 161.565,240.791 161.354,240.654 160.998 C 240.518 160.641,240.232 160.456,240.020 160.587 C 239.809 160.718,239.338 160.371,238.974 159.816 C 238.610 159.261,238.152 158.906,237.956 159.027 C 237.760 159.148,237.600 159.062,237.600 158.836 C 237.600 158.610,237.330 158.529,237.000 158.655 C 236.670 158.782,236.400 158.676,236.400 158.419 C 236.400 158.163,236.219 158.065,235.997 158.202 C 235.776 158.339,235.493 158.186,235.368 157.861 C 235.244 157.537,234.705 157.163,234.171 157.028 C 233.637 156.894,233.200 156.598,233.200 156.369 C 233.200 156.140,233.032 156.056,232.828 156.183 C 232.623 156.309,232.342 156.230,232.204 156.007 C 231.870 155.466,228.800 155.482,228.800 156.024 M82.983 200.427 C 82.838 200.662,82.467 200.758,82.160 200.640 C 81.852 200.522,81.600 200.614,81.600 200.846 C 81.600 201.077,81.386 201.195,81.125 201.108 C 80.487 200.896,79.293 202.073,79.512 202.700 C 79.607 202.975,79.467 203.200,79.200 203.200 C 78.933 203.200,78.818 203.470,78.945 203.800 C 79.071 204.130,79.001 204.400,78.787 204.400 C 78.574 204.400,78.400 204.850,78.400 205.400 C 78.400 205.950,78.601 206.400,78.847 206.400 C 79.096 206.400,79.201 206.753,79.084 207.200 C 78.969 207.640,79.032 208.000,79.225 208.000 C 79.417 208.000,79.495 208.225,79.398 208.500 C 78.722 210.412,80.379 210.600,97.935 210.600 L 114.471 210.600 115.260 209.625 C 115.695 209.088,116.151 208.143,116.275 207.525 C 116.399 206.906,116.658 206.400,116.850 206.400 C 117.043 206.400,117.200 205.950,117.200 205.400 C 117.200 204.850,117.020 204.400,116.800 204.400 C 116.580 204.400,116.400 204.202,116.400 203.960 C 116.400 202.902,115.106 200.861,114.566 201.068 C 114.255 201.188,114.000 201.076,114.000 200.819 C 114.000 200.563,113.820 200.464,113.600 200.600 C 113.380 200.736,113.200 200.657,113.200 200.424 C 113.200 199.828,83.351 199.832,82.983 200.427 M302.400 200.443 C 302.400 200.686,302.130 200.782,301.800 200.655 C 301.470 200.529,301.200 200.594,301.200 200.800 C 301.200 201.006,300.954 201.081,300.654 200.966 C 300.002 200.715,298.400 203.873,298.400 205.408 C 298.400 206.718,299.434 209.200,299.980 209.200 C 300.211 209.200,300.400 209.457,300.400 209.771 C 300.400 210.699,303.537 210.857,319.297 210.724 L 333.993 210.600 335.013 209.500 C 335.574 208.895,335.890 208.397,335.716 208.394 C 335.542 208.391,335.639 208.236,335.930 208.052 C 336.806 207.496,337.003 204.569,336.242 203.408 C 335.879 202.854,335.676 202.400,335.791 202.400 C 335.906 202.400,335.685 202.071,335.300 201.669 C 334.915 201.267,334.375 201.016,334.100 201.112 C 333.825 201.207,333.600 201.076,333.600 200.819 C 333.600 200.563,333.420 200.464,333.200 200.600 C 332.980 200.736,332.800 200.657,332.800 200.424 C 332.800 200.133,328.031 200.000,317.600 200.000 C 306.754 200.000,302.400 200.127,302.400 200.443 M139.200 267.227 C 139.200 267.477,138.856 267.545,138.371 267.391 C 137.806 267.211,137.370 267.362,137.003 267.863 C 136.707 268.268,136.354 268.487,136.217 268.350 C 135.863 267.996,115.518 288.344,115.789 288.782 C 115.912 288.981,115.838 289.253,115.624 289.385 C 115.410 289.517,115.336 289.890,115.460 290.213 C 115.584 290.536,115.486 290.800,115.243 290.800 C 114.649 290.800,114.677 292.517,115.280 293.120 C 115.544 293.384,115.612 293.600,115.431 293.600 C 115.250 293.600,115.326 293.870,115.600 294.200 C 115.874 294.530,115.980 294.800,115.835 294.800 C 115.691 294.800,116.125 295.340,116.800 296.000 C 118.037 297.210,122.000 297.829,122.000 296.813 C 122.000 296.599,122.270 296.529,122.600 296.655 C 122.930 296.782,123.200 296.676,123.200 296.419 C 123.200 296.163,123.356 296.049,123.546 296.167 C 123.943 296.412,140.063 280.426,139.819 280.030 C 139.730 279.887,140.196 279.531,140.854 279.240 C 141.601 278.910,141.971 278.501,141.838 278.155 C 141.716 277.837,141.876 277.600,142.213 277.600 C 142.536 277.600,142.800 277.319,142.800 276.976 C 142.800 276.633,142.980 276.464,143.200 276.600 C 143.420 276.736,143.600 276.561,143.600 276.211 C 143.600 275.861,143.880 275.467,144.223 275.336 C 144.585 275.197,144.747 274.839,144.609 274.480 C 144.479 274.141,144.582 273.734,144.839 273.576 C 145.404 273.227,144.960 269.600,144.352 269.600 C 144.132 269.600,144.064 269.420,144.200 269.200 C 144.336 268.980,144.060 268.800,143.586 268.800 C 143.049 268.800,142.643 268.485,142.507 267.964 C 142.342 267.336,142.051 267.173,141.334 267.310 C 140.810 267.411,140.285 267.337,140.167 267.146 C 139.866 266.659,139.200 266.715,139.200 267.227 M275.200 267.232 C 275.200 267.503,274.755 267.566,274.000 267.400 C 273.037 267.188,272.800 267.270,272.800 267.811 C 272.800 268.246,272.587 268.404,272.200 268.255 C 271.792 268.099,271.600 268.277,271.600 268.813 C 271.600 269.246,271.347 269.600,271.037 269.600 C 270.672 269.600,270.548 269.880,270.684 270.400 C 270.801 270.847,270.696 271.200,270.447 271.200 C 270.201 271.200,270.000 271.740,270.000 272.400 C 270.000 273.060,270.201 273.600,270.447 273.600 C 270.692 273.600,270.810 273.920,270.707 274.312 C 270.518 275.037,271.238 276.000,271.971 276.000 C 272.193 276.000,272.267 276.281,272.135 276.624 C 271.980 277.029,272.166 277.318,272.664 277.448 C 273.086 277.559,273.604 278.042,273.816 278.523 C 274.027 279.003,274.695 279.632,275.300 279.920 C 275.905 280.208,276.400 280.662,276.400 280.928 C 276.400 281.538,284.247 289.200,284.872 289.200 C 285.126 289.200,285.236 289.297,285.117 289.416 C 284.782 289.751,286.905 292.000,287.556 292.000 C 287.873 292.000,288.032 292.102,287.908 292.226 C 287.498 292.635,291.243 296.358,291.835 296.131 C 292.146 296.012,292.400 296.124,292.400 296.381 C 292.400 296.637,292.580 296.736,292.800 296.600 C 293.020 296.464,293.200 296.543,293.200 296.776 C 293.200 297.292,296.262 297.347,296.577 296.838 C 296.700 296.638,297.161 296.569,297.600 296.684 C 298.139 296.825,298.400 296.696,298.400 296.289 C 298.400 295.957,298.635 295.595,298.922 295.485 C 299.954 295.089,300.554 292.233,300.036 290.179 C 299.470 287.931,279.395 267.397,278.208 267.852 C 277.874 267.981,277.600 267.874,277.600 267.616 C 277.600 267.328,277.290 267.244,276.800 267.400 C 276.341 267.546,276.000 267.472,276.000 267.227 C 276.000 266.992,275.820 266.800,275.600 266.800 C 275.380 266.800,275.200 266.994,275.200 267.232 M184.400 309.624 C 184.400 309.857,184.220 309.936,184.000 309.800 C 183.780 309.664,183.600 309.751,183.600 309.994 C 183.600 310.237,183.300 310.382,182.934 310.318 C 182.475 310.237,182.160 310.605,181.922 311.500 C 181.732 312.215,181.447 312.800,181.289 312.800 C 181.130 312.800,181.000 313.610,181.000 314.600 C 181.000 315.590,181.135 316.400,181.300 316.400 C 181.465 316.400,181.600 316.670,181.600 317.000 C 181.600 317.330,181.774 317.600,181.987 317.600 C 182.201 317.600,182.260 317.900,182.119 318.266 C 181.952 318.703,182.019 318.835,182.317 318.651 C 182.567 318.497,183.137 318.737,183.585 319.185 C 184.386 319.986,184.796 320.000,207.340 320.000 C 230.525 320.000,232.800 319.870,232.800 318.548 C 232.800 318.233,233.059 317.876,233.375 317.754 C 233.691 317.633,233.852 317.279,233.732 316.967 C 233.612 316.655,233.669 316.400,233.857 316.400 C 234.046 316.400,234.200 315.590,234.200 314.600 C 234.200 313.610,234.070 312.800,233.911 312.800 C 233.753 312.800,233.468 312.215,233.278 311.500 C 233.040 310.605,232.725 310.237,232.266 310.318 C 231.900 310.382,231.600 310.237,231.600 309.994 C 231.600 309.751,231.420 309.664,231.200 309.800 C 230.980 309.936,230.800 309.857,230.800 309.624 C 230.800 309.330,223.662 309.200,207.600 309.200 C 191.538 309.200,184.400 309.330,184.400 309.624 M184.800 325.243 C 184.800 325.486,184.530 325.582,184.200 325.455 C 183.870 325.329,183.598 325.354,183.597 325.513 C 183.595 325.671,183.008 326.430,182.292 327.200 C 180.880 328.719,180.463 331.632,181.500 332.729 C 181.775 333.019,182.000 333.524,182.000 333.849 C 182.000 334.175,182.540 334.630,183.200 334.860 C 183.860 335.090,184.400 335.396,184.400 335.539 C 184.400 335.683,194.840 335.800,207.600 335.800 C 220.360 335.800,230.800 335.683,230.800 335.539 C 230.800 335.396,231.340 335.090,232.000 334.860 C 232.660 334.630,233.200 334.177,233.200 333.854 C 233.200 333.531,233.423 333.192,233.696 333.101 C 234.277 332.908,234.408 328.400,233.833 328.400 C 233.632 328.400,233.581 328.286,233.720 328.147 C 233.859 328.008,233.529 327.545,232.986 327.118 C 232.444 326.691,232.000 326.066,232.000 325.728 C 232.000 325.347,231.773 325.202,231.400 325.345 C 231.070 325.471,230.800 325.401,230.800 325.187 C 230.800 324.942,222.370 324.800,207.800 324.800 C 191.251 324.800,184.800 324.924,184.800 325.243 M197.200 341.168 C 196.608 341.338,196.222 341.728,196.255 342.123 C 196.285 342.491,196.193 342.719,196.050 342.631 C 195.593 342.349,194.526 343.372,194.204 344.402 C 194.033 344.951,193.691 345.535,193.446 345.700 C 193.125 345.916,193.122 346.084,193.437 346.300 C 193.678 346.465,193.988 347.184,194.127 347.898 C 194.465 349.636,195.590 351.290,196.259 351.033 C 196.557 350.918,196.800 350.954,196.800 351.113 C 196.800 351.271,201.660 351.400,207.600 351.400 C 213.540 351.400,218.400 351.271,218.400 351.113 C 218.400 350.954,218.670 350.929,219.000 351.055 C 219.369 351.197,219.600 351.055,219.600 350.686 C 219.600 350.356,219.870 349.982,220.200 349.855 C 220.530 349.729,220.800 349.349,220.800 349.013 C 220.800 348.676,220.963 348.400,221.163 348.400 C 221.362 348.400,221.431 348.040,221.316 347.600 C 221.199 347.153,221.304 346.800,221.553 346.800 C 221.799 346.800,222.000 346.530,222.000 346.200 C 222.000 345.870,221.834 345.600,221.632 345.600 C 221.429 345.600,221.143 345.051,220.996 344.381 C 220.849 343.710,220.384 342.947,219.964 342.685 C 219.544 342.422,219.200 342.003,219.200 341.754 C 219.200 340.833,200.129 340.325,197.200 341.168 " stroke="none" fill="#fcfcfc" fill-rule="evenodd"></path></g></svg>