<?xml version="1.0" encoding="UTF-8" standalone="no"?>
<!DOCTYPE svg PUBLIC "-//W3C//DTD SVG 20010904//EN"
              "http://www.w3.org/TR/2001/REC-SVG-20010904/DTD/svg10.dtd">

<svg xmlns="http://www.w3.org/2000/svg"
     width="1323.45mm" height="1323.45mm"
     viewBox="0 0 5000 5000">
  <path id="Selection"
        fill="white"
        d="M 1879.00,4348.00
           C 1879.00,4348.00 1879.00,4539.00 1879.00,4539.00
             1879.00,4539.00 1879.95,4555.28 1879.95,4555.28
             1879.95,4555.28 1879.95,4563.00 1879.95,4563.00
             1879.95,4563.00 1879.95,4651.00 1879.95,4651.00
             1879.95,4651.00 1881.00,4666.00 1881.00,4666.00
             1881.00,4666.00 1881.00,4758.00 1881.00,4758.00
             1881.00,4758.00 1882.00,4772.00 1882.00,4772.00
             1882.00,4772.00 1882.00,4815.00 1882.00,4815.00
             1881.92,4864.41 1854.59,4913.67 1807.00,4931.58
             1786.56,4939.27 1765.45,4939.25 1744.00,4939.00
             1744.00,4939.00 1709.00,4934.66 1709.00,4934.66
             1709.00,4934.66 1645.00,4912.69 1645.00,4912.69
             1582.21,4890.27 1520.95,4864.80 1460.00,4837.86
             1278.28,4757.53 1095.83,4645.35 941.00,4521.00
             892.90,4482.37 846.12,4441.95 801.00,4399.91
             801.00,4399.91 757.00,4357.01 757.00,4357.01
             757.00,4357.01 737.00,4337.99 737.00,4337.99
             737.00,4337.99 722.96,4323.00 722.96,4323.00
             722.96,4323.00 700.04,4300.00 700.04,4300.00
             700.04,4300.00 677.91,4276.00 677.91,4276.00
             615.52,4209.03 557.59,4138.78 502.12,4066.00
             265.32,3755.33 104.10,3394.10 37.25,3009.00
             25.67,2942.32 17.35,2875.29 10.83,2808.00
             10.83,2808.00 5.91,2745.00 5.91,2745.00
             5.91,2745.00 4.00,2716.00 4.00,2716.00
             4.00,2716.00 3.00,2701.00 3.00,2701.00
             3.00,2701.00 2.00,2674.00 2.00,2674.00
             2.00,2674.00 1.00,2658.00 1.00,2658.00
             1.00,2658.00 1.00,2641.00 1.00,2641.00
             1.00,2641.00 0.00,2624.00 0.00,2624.00
             0.00,2624.00 0.00,2495.00 0.00,2495.00
             0.00,2495.00 1.00,2480.00 1.00,2480.00
             1.00,2480.00 1.00,2466.00 1.00,2466.00
             1.00,2466.00 1.96,2454.00 1.96,2454.00
             1.96,2454.00 1.96,2441.00 1.96,2441.00
             1.96,2441.00 2.96,2429.00 2.96,2429.00
             2.96,2429.00 2.96,2421.00 2.96,2421.00
             2.96,2421.00 4.00,2403.00 4.00,2403.00
             4.00,2403.00 6.00,2379.00 6.00,2379.00
             6.00,2379.00 6.00,2370.00 6.00,2370.00
             6.00,2370.00 8.83,2338.00 8.83,2338.00
             8.83,2338.00 11.17,2309.00 11.17,2309.00
             11.17,2309.00 23.72,2203.00 23.72,2203.00
             45.67,2036.20 91.64,1852.53 150.58,1695.00
             177.74,1622.39 207.48,1550.79 241.26,1481.00
             357.64,1240.55 511.40,1018.05 696.04,825.00
             696.04,825.00 732.00,789.00 732.00,789.00
             851.20,669.80 982.80,562.85 1124.00,470.66
             1313.72,346.78 1513.92,247.41 1730.00,178.34
             1877.93,131.06 2043.55,94.37 2198.00,77.84
             2198.00,77.84 2250.00,72.17 2250.00,72.17
             2250.00,72.17 2320.00,66.91 2320.00,66.91
             2320.00,66.91 2350.00,65.00 2350.00,65.00
             2350.00,65.00 2365.00,64.00 2365.00,64.00
             2365.00,64.00 2383.00,63.00 2383.00,63.00
             2383.00,63.00 2430.00,62.00 2430.00,62.00
             2430.00,62.00 2447.00,61.00 2447.00,61.00
             2447.00,61.00 2555.00,61.00 2555.00,61.00
             2555.00,61.00 2569.00,62.00 2569.00,62.00
             2569.00,62.00 2590.00,62.00 2590.00,62.00
             2590.00,62.00 2605.00,63.00 2605.00,63.00
             2605.00,63.00 2655.00,65.00 2655.00,65.00
             2655.00,65.00 2680.00,66.91 2680.00,66.91
             2680.00,66.91 2702.00,68.09 2702.00,68.09
             2702.00,68.09 2774.00,74.83 2774.00,74.83
             2974.55,94.88 3172.71,140.82 3362.00,210.05
             3684.67,328.07 3987.96,519.80 4236.00,757.04
             4236.00,757.04 4272.00,793.00 4272.00,793.00
             4405.25,926.25 4522.79,1075.01 4622.42,1235.00
             4724.83,1399.43 4798.80,1552.63 4863.69,1735.00
             4879.49,1779.38 4893.95,1824.61 4906.58,1870.00
             4935.04,1972.37 4955.12,2065.01 4971.42,2170.00
             4971.42,2170.00 4984.83,2271.00 4984.83,2271.00
             4984.83,2271.00 4990.17,2328.00 4990.17,2328.00
             4990.17,2328.00 4995.09,2394.00 4995.09,2394.00
             4995.09,2394.00 4996.00,2409.00 4996.00,2409.00
             4996.00,2409.00 4997.00,2424.00 4997.00,2424.00
             4997.00,2424.00 4998.00,2451.00 4998.00,2451.00
             4998.00,2451.00 4999.00,2467.00 4999.00,2467.00
             4999.00,2467.00 4999.00,2481.00 4999.00,2481.00
             4999.00,2481.00 5000.00,2497.00 5000.00,2497.00
             5000.00,2497.00 5000.00,2626.00 5000.00,2626.00
             5000.00,2626.00 4999.00,2641.00 4999.00,2641.00
             4999.00,2641.00 4999.00,2659.00 4999.00,2659.00
             4999.00,2659.00 4998.00,2679.00 4998.00,2679.00
             4998.00,2679.00 4997.00,2696.00 4997.00,2696.00
             4997.00,2696.00 4994.09,2745.00 4994.09,2745.00
             4994.09,2745.00 4987.17,2829.00 4987.17,2829.00
             4977.20,2928.66 4961.03,3027.18 4939.42,3125.00
             4892.88,3335.74 4813.31,3546.25 4710.69,3736.00
             4647.18,3853.44 4576.44,3961.24 4496.37,4068.00
             4370.07,4236.41 4218.70,4393.86 4054.00,4525.00
             3848.63,4688.51 3625.54,4811.73 3380.00,4903.58
             3380.00,4903.58 3326.00,4922.69 3326.00,4922.69
             3326.00,4922.69 3291.00,4934.50 3291.00,4934.50
             3273.25,4938.70 3252.20,4939.21 3234.00,4939.00
             3212.52,4938.74 3187.39,4931.55 3170.00,4918.84
             3162.56,4913.40 3154.10,4904.31 3148.42,4897.00
             3140.21,4886.41 3133.77,4874.62 3129.31,4862.00
             3124.34,4847.96 3122.92,4838.70 3121.91,4824.00
             3121.91,4824.00 3121.00,4812.00 3121.00,4812.00
             3121.00,4812.00 3121.00,4268.00 3121.00,4268.00
             3121.00,4268.00 3121.00,4094.00 3121.00,4094.00
             3121.00,4094.00 3120.00,4079.00 3120.00,4079.00
             3120.00,4079.00 3120.00,4074.00 3120.00,4074.00
             3120.00,4074.00 3119.00,4057.00 3119.00,4057.00
             3119.00,4057.00 3112.28,3993.00 3112.28,3993.00
             3107.56,3957.11 3098.67,3914.44 3087.66,3880.00
             3070.02,3824.82 3045.11,3773.10 3009.77,3727.00
             2998.54,3712.36 2986.08,3697.99 2973.00,3685.00
             2967.46,3679.50 2955.36,3670.17 2952.00,3664.00
             2952.00,3664.00 2976.00,3661.28 2976.00,3661.28
             2976.00,3661.28 3003.00,3658.15 3003.00,3658.15
             3003.00,3658.15 3099.00,3644.41 3099.00,3644.41
             3169.94,3632.51 3240.88,3618.76 3310.00,3598.58
             3310.00,3598.58 3376.00,3577.31 3376.00,3577.31
             3376.00,3577.31 3412.00,3563.68 3412.00,3563.68
             3453.42,3548.36 3493.54,3528.98 3533.00,3509.25
             3635.37,3458.06 3724.61,3399.27 3805.01,3317.00
             3825.70,3295.84 3845.47,3274.28 3863.79,3251.00
             3926.86,3170.87 3971.18,3079.34 4006.05,2984.00
             4046.23,2874.15 4070.74,2762.18 4083.16,2646.00
             4083.16,2646.00 4089.09,2580.00 4089.09,2580.00
             4089.09,2580.00 4091.00,2556.00 4091.00,2556.00
             4091.00,2556.00 4092.00,2535.00 4092.00,2535.00
             4092.00,2535.00 4093.00,2506.00 4093.00,2506.00
             4093.00,2506.00 4094.00,2490.00 4094.00,2490.00
             4094.00,2490.00 4094.00,2445.00 4094.00,2445.00
             4094.00,2445.00 4094.99,2432.00 4094.99,2432.00
             4094.99,2432.00 4094.00,2417.00 4094.00,2417.00
             4094.00,2417.00 4094.00,2390.00 4094.00,2390.00
             4094.00,2390.00 4093.00,2369.00 4093.00,2369.00
             4093.00,2369.00 4092.09,2359.00 4092.09,2359.00
             4092.09,2359.00 4089.17,2322.00 4089.17,2322.00
             4083.97,2268.33 4074.84,2215.21 4061.12,2163.00
             4035.61,2065.96 3992.05,1968.02 3935.66,1885.00
             3915.23,1854.92 3892.75,1824.52 3869.00,1797.00
             3869.00,1797.00 3848.00,1773.00 3848.00,1773.00
             3845.54,1770.42 3838.51,1763.26 3837.97,1760.00
             3837.59,1757.68 3839.70,1753.26 3840.60,1751.00
             3840.60,1751.00 3847.34,1733.00 3847.34,1733.00
             3855.23,1710.27 3863.22,1687.45 3868.77,1664.00
             3881.57,1609.87 3890.35,1556.70 3891.00,1501.00
             3891.00,1501.00 3892.00,1488.00 3892.00,1488.00
             3892.00,1488.00 3892.00,1469.00 3892.00,1469.00
             3892.00,1469.00 3891.00,1454.00 3891.00,1454.00
             3891.00,1454.00 3887.17,1394.00 3887.17,1394.00
             3879.85,1320.81 3864.82,1257.15 3843.41,1187.00
             3843.41,1187.00 3821.66,1124.00 3821.66,1124.00
             3821.66,1124.00 3814.81,1106.00 3814.81,1106.00
             3813.80,1103.35 3812.70,1099.46 3810.58,1097.56
             3807.72,1094.98 3794.28,1092.35 3790.00,1091.58
             3767.92,1087.59 3755.12,1087.74 3733.00,1088.00
             3733.00,1088.00 3723.00,1088.91 3723.00,1088.91
             3723.00,1088.91 3680.00,1094.58 3680.00,1094.58
             3631.99,1103.24 3585.40,1118.60 3540.00,1136.19
             3472.96,1162.16 3406.93,1190.27 3343.00,1223.26
             3343.00,1223.26 3286.00,1254.30 3286.00,1254.30
             3286.00,1254.30 3221.00,1293.95 3221.00,1293.95
             3221.00,1293.95 3170.00,1326.05 3170.00,1326.05
             3170.00,1326.05 3139.00,1345.66 3139.00,1345.66
             3135.57,1347.89 3127.84,1353.43 3124.00,1353.46
             3124.00,1353.46 3093.00,1345.42 3093.00,1345.42
             3093.00,1345.42 3039.00,1331.88 3039.00,1331.88
             2978.99,1317.66 2918.03,1305.26 2857.00,1296.27
             2800.89,1288.01 2744.54,1280.80 2688.00,1276.91
             2688.00,1276.91 2661.00,1274.91 2661.00,1274.91
             2661.00,1274.91 2649.00,1274.00 2649.00,1274.00
             2649.00,1274.00 2629.00,1273.00 2629.00,1273.00
             2629.00,1273.00 2615.00,1272.00 2615.00,1272.00
             2615.00,1272.00 2595.00,1271.00 2595.00,1271.00
             2595.00,1271.00 2583.00,1271.00 2583.00,1271.00
             2583.00,1271.00 2569.00,1270.00 2569.00,1270.00
             2569.00,1270.00 2540.00,1270.00 2540.00,1270.00
             2540.00,1270.00 2523.00,1269.00 2523.00,1269.00
             2523.00,1269.00 2476.00,1269.00 2476.00,1269.00
             2476.00,1269.00 2460.00,1270.00 2460.00,1270.00
             2460.00,1270.00 2432.00,1270.00 2432.00,1270.00
             2432.00,1270.00 2420.00,1270.96 2420.00,1270.96
             2420.00,1270.96 2407.00,1270.96 2407.00,1270.96
             2407.00,1270.96 2395.00,1271.96 2395.00,1271.96
             2395.00,1271.96 2384.00,1271.96 2384.00,1271.96
             2384.00,1271.96 2371.00,1273.00 2371.00,1273.00
             2371.00,1273.00 2349.00,1274.00 2349.00,1274.00
             2349.00,1274.00 2325.00,1275.91 2325.00,1275.91
             2325.00,1275.91 2248.00,1282.83 2248.00,1282.83
             2171.09,1290.52 2092.63,1303.11 2017.00,1319.21
             2017.00,1319.21 1917.00,1342.87 1917.00,1342.87
             1917.00,1342.87 1887.00,1350.87 1887.00,1350.87
             1884.20,1351.58 1877.49,1353.73 1875.00,1353.31
             1871.79,1352.77 1862.25,1345.83 1859.00,1343.67
             1859.00,1343.67 1825.00,1321.34 1825.00,1321.34
             1825.00,1321.34 1752.00,1276.00 1752.00,1276.00
             1752.00,1276.00 1712.00,1252.31 1712.00,1252.31
             1637.15,1211.82 1558.17,1177.91 1479.00,1146.80
             1408.66,1119.15 1335.22,1092.28 1259.00,1088.96
             1259.00,1088.96 1248.00,1088.00 1248.00,1088.00
             1235.16,1087.85 1216.77,1090.03 1204.00,1092.25
             1200.22,1092.91 1189.00,1095.24 1186.41,1097.56
             1184.09,1099.64 1182.42,1105.01 1181.32,1108.00
             1181.32,1108.00 1174.31,1127.00 1174.31,1127.00
             1174.31,1127.00 1149.86,1201.00 1149.86,1201.00
             1134.40,1254.75 1121.49,1309.39 1114.85,1365.00
             1112.19,1387.24 1109.26,1409.60 1109.00,1432.00
             1109.00,1432.00 1108.00,1447.00 1108.00,1447.00
             1108.00,1447.00 1108.00,1503.00 1108.00,1503.00
             1108.00,1503.00 1109.00,1522.00 1109.00,1522.00
             1109.00,1522.00 1109.91,1532.00 1109.91,1532.00
             1109.91,1532.00 1113.72,1572.00 1113.72,1572.00
             1119.17,1613.81 1126.53,1648.48 1138.14,1689.00
             1138.14,1689.00 1155.05,1740.00 1155.05,1740.00
             1156.42,1743.72 1162.52,1757.05 1162.03,1760.00
             1161.60,1762.53 1158.93,1765.09 1157.28,1767.00
             1157.28,1767.00 1145.58,1780.00 1145.58,1780.00
             1145.58,1780.00 1102.50,1832.00 1102.50,1832.00
             1060.92,1885.96 1023.77,1945.03 995.31,2007.00
             954.73,2095.36 928.71,2183.63 915.72,2280.00
             915.72,2280.00 909.17,2337.00 909.17,2337.00
             909.17,2337.00 907.91,2359.00 907.91,2359.00
             907.91,2359.00 907.00,2369.00 907.00,2369.00
             907.00,2369.00 906.00,2390.00 906.00,2390.00
             906.00,2390.00 906.00,2419.00 906.00,2419.00
             906.00,2419.00 905.01,2432.00 905.01,2432.00
             905.01,2432.00 906.00,2447.00 906.00,2447.00
             906.00,2447.00 906.00,2490.00 906.00,2490.00
             906.00,2490.00 907.00,2506.00 907.00,2506.00
             907.00,2506.00 909.00,2555.00 909.00,2555.00
             909.00,2555.00 909.91,2565.00 909.91,2565.00
             909.91,2565.00 910.96,2579.00 910.96,2579.00
             910.96,2579.00 910.96,2587.00 910.96,2587.00
             910.96,2587.00 913.83,2616.00 913.83,2616.00
             918.38,2662.95 924.19,2709.52 932.58,2756.00
             947.95,2841.24 969.78,2919.04 1000.58,3000.00
             1027.55,3070.92 1063.23,3146.14 1105.74,3209.00
             1130.32,3245.34 1157.04,3277.94 1186.91,3310.00
             1186.91,3310.00 1214.00,3337.96 1214.00,3337.96
             1290.84,3411.46 1376.75,3466.80 1472.00,3513.26
             1472.00,3513.26 1503.00,3528.69 1503.00,3528.69
             1545.55,3548.23 1588.74,3566.30 1633.00,3581.66
             1700.49,3605.08 1781.53,3623.71 1852.00,3636.42
             1894.58,3644.11 1937.11,3650.64 1980.00,3656.28
             1980.00,3656.28 2045.00,3664.00 2045.00,3664.00
             2039.96,3671.05 2033.46,3675.75 2027.51,3681.80
             2017.50,3691.99 2007.55,3702.80 1998.66,3714.00
             1964.82,3756.65 1940.34,3801.17 1921.06,3852.00
             1908.47,3885.22 1899.76,3920.21 1892.80,3955.00
             1892.80,3955.00 1887.27,3987.00 1887.27,3987.00
             1886.80,3990.27 1886.20,3997.98 1884.18,4000.35
             1882.66,4002.13 1879.15,4003.33 1877.00,4004.30
             1877.00,4004.30 1860.00,4011.80 1860.00,4011.80
             1839.61,4020.02 1819.16,4028.05 1798.00,4034.14
             1798.00,4034.14 1755.00,4045.77 1755.00,4045.77
             1725.00,4052.73 1694.61,4057.20 1664.00,4060.17
             1664.00,4060.17 1649.00,4061.91 1649.00,4061.91
             1649.00,4061.91 1626.00,4063.09 1626.00,4063.09
             1626.00,4063.09 1614.00,4064.00 1614.00,4064.00
             1614.00,4064.00 1593.00,4065.00 1593.00,4065.00
             1593.00,4065.00 1535.00,4065.00 1535.00,4065.00
             1535.00,4065.00 1525.00,4064.09 1525.00,4064.09
             1489.68,4061.62 1454.84,4052.74 1422.00,4039.60
             1334.84,4004.73 1266.42,3946.15 1209.88,3872.00
             1195.05,3852.55 1181.04,3830.99 1168.45,3810.00
             1153.74,3785.48 1139.40,3760.45 1121.55,3738.00
             1103.70,3715.55 1085.02,3693.68 1064.00,3674.09
             1025.45,3638.18 976.61,3604.82 930.00,3580.22
             903.47,3566.22 876.22,3553.78 847.00,3546.47
             847.00,3546.47 805.00,3539.72 805.00,3539.72
             805.00,3539.72 771.00,3535.00 771.00,3535.00
             747.75,3534.73 705.53,3537.49 685.00,3547.76
             674.59,3552.97 661.11,3562.79 662.19,3576.00
             662.71,3582.40 665.93,3588.37 668.75,3594.00
             676.34,3609.14 684.77,3620.22 695.73,3633.00
             712.41,3652.46 736.35,3672.06 758.00,3685.91
             758.00,3685.91 772.00,3693.26 772.00,3693.26
             772.00,3693.26 791.00,3704.34 791.00,3704.34
             813.07,3718.75 829.95,3732.97 849.01,3751.09
             849.01,3751.09 863.09,3766.00 863.09,3766.00
             881.13,3785.40 896.51,3804.85 912.37,3826.00
             946.85,3871.97 977.70,3920.73 1001.69,3973.00
             1001.69,3973.00 1019.42,4014.00 1019.42,4014.00
             1019.42,4014.00 1035.55,4051.00 1035.55,4051.00
             1035.55,4051.00 1040.20,4064.00 1040.20,4064.00
             1040.20,4064.00 1059.97,4109.00 1059.97,4109.00
             1077.19,4143.44 1102.13,4179.45 1129.01,4207.00
             1179.76,4259.00 1246.71,4301.91 1315.00,4326.95
             1359.91,4343.41 1399.07,4350.36 1446.00,4357.27
             1482.64,4362.67 1519.11,4366.57 1556.00,4369.09
             1556.00,4369.09 1588.00,4371.00 1588.00,4371.00
             1588.00,4371.00 1605.00,4372.00 1605.00,4372.00
             1605.00,4372.00 1684.00,4372.00 1684.00,4372.00
             1684.00,4372.00 1696.00,4371.04 1696.00,4371.04
             1696.00,4371.04 1708.00,4371.04 1708.00,4371.04
             1708.00,4371.04 1732.00,4368.96 1732.00,4368.96
             1732.00,4368.96 1741.00,4368.96 1741.00,4368.96
             1741.00,4368.96 1808.00,4359.75 1808.00,4359.75
             1808.00,4359.75 1879.00,4348.00 1879.00,4348.00 Z" />
</svg>
