<?xml version="1.0" encoding="UTF-8" standalone="no"?>
<!DOCTYPE svg PUBLIC "-//W3C//DTD SVG 20010904//EN"
              "http://www.w3.org/TR/2001/REC-SVG-20010904/DTD/svg10.dtd">

<svg xmlns="http://www.w3.org/2000/svg"
     width="28.9242mm" height="28.9242mm"
     viewBox="0 0 82 82">
  <path id="Selection"
        fill="none" stroke="black" stroke-width="1"
        d="M 26.00,59.00
           C 7.88,59.00 3.19,61.14 3.00,51.00
             3.00,51.00 3.00,24.00 3.00,24.00
             3.01,21.46 2.68,17.52 4.60,15.60
             6.52,13.68 10.46,14.01 13.00,14.00
             13.00,14.00 57.00,14.00 57.00,14.00
             59.77,14.01 63.44,13.71 65.69,15.60
             69.42,18.75 68.87,28.30 65.00,31.00
             65.00,31.00 65.00,25.00 65.00,25.00
             64.86,17.57 62.96,17.05 56.00,17.00
             56.00,17.00 6.00,17.00 6.00,17.00
             6.00,17.00 6.00,50.00 6.00,50.00
             6.00,50.00 58.00,50.00 58.00,50.00
             58.00,46.20 57.24,37.11 59.60,34.31
             62.13,31.31 74.63,30.83 77.40,33.60
             79.32,35.52 78.99,39.46 79.00,42.00
             79.00,42.00 79.00,59.00 79.00,59.00
             78.99,60.97 79.13,63.89 77.98,65.63
             75.47,69.21 62.34,68.95 59.60,65.63
             57.39,63.06 58.00,56.41 58.00,53.00
             58.00,53.00 6.00,53.00 6.00,53.00
             6.00,53.00 6.00,56.00 6.00,56.00
             6.00,56.00 57.00,56.00 57.00,56.00
             57.00,56.00 57.00,59.00 57.00,59.00
             57.00,59.00 45.00,59.00 45.00,59.00
             45.00,59.00 45.00,65.00 45.00,65.00
             45.00,65.00 52.00,65.00 52.00,65.00
             49.51,68.72 47.15,67.99 43.00,68.00
             36.78,68.01 22.70,69.46 18.00,66.00
             18.00,66.00 26.00,65.00 26.00,65.00
             26.00,65.00 26.00,59.00 26.00,59.00 Z
           M 14.00,27.00
           C 14.00,27.00 35.00,26.00 35.00,26.00
             35.00,26.00 57.00,27.00 57.00,27.00
             54.00,29.96 53.17,29.92 49.00,30.00
             41.37,30.14 20.26,30.78 14.00,29.00
             14.00,29.00 14.00,27.00 14.00,27.00 Z
           M 14.00,32.00
           C 14.00,32.00 43.00,32.00 43.00,32.00
             47.74,32.00 53.04,31.09 57.00,34.00
             50.24,35.92 22.87,35.00 14.00,35.00
             14.00,35.00 14.00,32.00 14.00,32.00 Z
           M 76.00,35.00
           C 71.05,35.00 65.15,33.95 61.00,37.00
             61.00,37.00 76.00,37.00 76.00,37.00
             76.00,37.00 76.00,35.00 76.00,35.00 Z
           M 14.00,38.00
           C 14.00,38.00 43.00,38.00 43.00,38.00
             47.74,38.00 53.04,37.09 57.00,40.00
             57.00,40.00 14.00,40.00 14.00,40.00
             14.00,40.00 14.00,38.00 14.00,38.00 Z
           M 76.00,39.00
           C 76.00,39.00 61.00,39.00 61.00,39.00
             61.00,39.00 61.00,59.00 61.00,59.00
             66.60,57.64 70.40,57.64 76.00,59.00
             76.00,59.00 76.00,39.00 76.00,39.00 Z
           M 42.00,59.00
           C 42.00,59.00 28.00,59.00 28.00,59.00
             28.00,59.00 28.00,65.00 28.00,65.00
             28.00,65.00 42.00,65.00 42.00,65.00
             42.00,65.00 42.00,59.00 42.00,59.00 Z
           M 76.00,61.00
           C 76.00,61.00 61.00,61.00 61.00,61.00
             62.20,64.42 62.46,64.38 66.00,65.00
             66.00,65.00 66.00,62.00 66.00,62.00
             66.00,62.00 72.00,62.00 72.00,62.00
             72.00,62.00 71.00,65.00 71.00,65.00
             71.00,65.00 76.00,65.00 76.00,65.00
             76.00,65.00 76.00,61.00 76.00,61.00 Z" />
</svg>
