<?xml version="1.0" encoding="UTF-8" standalone="no"?>
<!DOCTYPE svg PUBLIC "-//W3C//DTD SVG 20010904//EN"
              "http://www.w3.org/TR/2001/REC-SVG-20010904/DTD/svg10.dtd">

<svg xmlns="http://www.w3.org/2000/svg"
     width="138.266mm" height="138.266mm"
     viewBox="0 0 512 512">
  <path id="Selection"
        fill="white" stroke="black" stroke-width="1"
        d="M 248.00,0.52
           C 271.00,-3.12 289.96,9.67 290.00,34.00
             290.00,34.00 290.00,190.00 290.00,190.00
             289.96,212.72 271.45,228.57 249.00,224.00
             243.24,222.82 239.82,221.63 235.00,218.07
             223.34,209.46 221.02,196.60 221.00,183.00
             221.00,183.00 221.00,39.00 221.00,39.00
             221.23,19.79 228.49,5.76 248.00,0.52 Z
           M 129.00,94.31
           C 130.94,94.21 132.00,94.03 134.00,94.31
             152.01,95.55 166.78,108.34 167.00,127.00
             167.24,148.69 155.32,154.84 141.17,168.42
             134.51,174.81 125.44,186.17 120.43,194.00
             86.52,247.02 84.97,312.26 118.42,366.00
             129.72,384.14 144.78,400.22 162.00,412.85
             176.81,423.71 192.57,431.09 210.00,436.66
             230.62,443.24 245.90,443.24 267.00,443.00
             274.71,442.91 288.41,440.20 296.00,438.15
             338.39,426.72 373.00,400.89 395.55,363.00
             411.19,336.72 418.35,306.40 418.00,276.00
             417.62,243.95 403.44,207.97 383.71,183.00
             380.65,179.12 372.38,169.65 368.91,166.42
             357.05,155.38 345.43,148.04 345.01,130.00
             344.54,109.25 360.09,93.19 381.00,94.04
             394.54,94.59 403.70,103.17 413.00,111.97
             430.87,128.85 446.12,147.46 458.14,169.00
             515.61,272.02 484.98,405.68 387.00,472.25
             357.43,492.35 324.40,505.21 289.00,510.13
             282.67,511.01 276.40,511.99 270.00,512.00
             270.00,512.00 242.00,512.00 242.00,512.00
             225.87,511.81 202.51,506.80 187.00,502.02
             103.88,476.45 39.13,402.69 27.72,316.00
             27.72,316.00 25.00,289.00 25.00,289.00
             24.32,230.62 40.49,180.80 77.20,135.00
             84.56,125.82 106.08,103.58 116.00,98.33
             120.49,95.95 124.10,95.34 129.00,94.31 Z" />
</svg>
